<?xml version="1.0" encoding="utf-8" standalone="no"?>
<!DOCTYPE svg PUBLIC "-//W3C//DTD SVG 1.1//EN"
  "http://www.w3.org/Graphics/SVG/1.1/DTD/svg11.dtd">
<svg xmlns:xlink="http://www.w3.org/1999/xlink" width="554.002678pt" height="407.575813pt" viewBox="0 0 554.002678 407.575813" xmlns="http://www.w3.org/2000/svg" version="1.1">
 <metadata>
  <rdf:RDF xmlns:dc="http://purl.org/dc/elements/1.1/" xmlns:cc="http://creativecommons.org/ns#" xmlns:rdf="http://www.w3.org/1999/02/22-rdf-syntax-ns#">
   <cc:Work>
    <dc:type rdf:resource="http://purl.org/dc/dcmitype/StillImage"/>
    <dc:date>2025-01-11T23:40:18.798531</dc:date>
    <dc:format>image/svg+xml</dc:format>
    <dc:creator>
     <cc:Agent>
      <dc:title>Matplotlib v3.9.4, https://matplotlib.org/</dc:title>
     </cc:Agent>
    </dc:creator>
   </cc:Work>
  </rdf:RDF>
 </metadata>
 <defs>
  <style type="text/css">*{stroke-linejoin: round; stroke-linecap: butt}</style>
 </defs>
 <g id="figure_1">
  <g id="patch_1">
   <path d="M 0 407.575813 
L 554.002678 407.575813 
L 554.002678 0 
L 0 0 
z
" style="fill: #ffffff"/>
  </g>
  <g id="axes_1">
   <g id="patch_2">
    <path d="M 66.771875 378.548313 
L 546.802678 378.548313 
L 546.802678 9.401326 
L 66.771875 9.401326 
z
" style="fill: #ffffff"/>
   </g>
   <g id="patch_3">
    <path d="M 123.502788 76558.468511 
L 140.958454 76558.468511 
L 140.958454 272.084423 
L 123.502788 272.084423 
z
" clip-path="url(#p024d874cbb)" style="fill: #8fba5d"/>
   </g>
   <g id="patch_4">
    <path d="M 88.591457 76558.468511 
L 106.047123 76558.468511 
L 106.047123 282.630425 
L 88.591457 282.630425 
z
" clip-path="url(#p024d874cbb)" style="fill: #b3c9d3"/>
   </g>
   <g id="patch_5">
    <path d="M 204.962561 76558.468511 
L 222.418226 76558.468511 
L 222.418226 78.530882 
L 204.962561 78.530882 
z
" clip-path="url(#p024d874cbb)" style="fill: #b3c9d3"/>
   </g>
   <g id="patch_6">
    <path d="M 321.333665 76558.468511 
L 338.78933 76558.468511 
L 338.78933 94.598562 
L 321.333665 94.598562 
z
" clip-path="url(#p024d874cbb)" style="fill: #b3c9d3"/>
   </g>
   <g id="patch_7">
    <path d="M 437.704768 76558.468511 
L 455.160434 76558.468511 
L 455.160434 84.641453 
L 437.704768 84.641453 
z
" clip-path="url(#p024d874cbb)" style="fill: #b3c9d3"/>
   </g>
   <g id="patch_8">
    <path d="M 106.047123 76558.468511 
L 123.502788 76558.468511 
L 123.502788 291.282462 
L 106.047123 291.282462 
z
" clip-path="url(#p024d874cbb)" style="fill: #f1cba2"/>
   </g>
   <g id="patch_9">
    <path d="M 222.418226 76558.468511 
L 239.873892 76558.468511 
L 239.873892 76.633924 
L 222.418226 76.633924 
z
" clip-path="url(#p024d874cbb)" style="fill: #f1cba2"/>
   </g>
   <g id="patch_10">
    <path d="M 338.78933 76558.468511 
L 356.244996 76558.468511 
L 356.244996 98.462071 
L 338.78933 98.462071 
z
" clip-path="url(#p024d874cbb)" style="fill: #f1cba2"/>
   </g>
   <g id="patch_11">
    <path d="M 455.160434 76558.468511 
L 472.616099 76558.468511 
L 472.616099 81.433192 
L 455.160434 81.433192 
z
" clip-path="url(#p024d874cbb)" style="fill: #f1cba2"/>
   </g>
   <g id="patch_12">
    <path d="M 123.502788 76558.468511 
L 140.958454 76558.468511 
L 140.958454 290.479781 
L 123.502788 290.479781 
z
" clip-path="url(#p024d874cbb)" style="fill: #c3dfc4"/>
   </g>
   <g id="patch_13">
    <path d="M 239.873892 76558.468511 
L 257.329557 76558.468511 
L 257.329557 84.349261 
L 239.873892 84.349261 
z
" clip-path="url(#p024d874cbb)" style="fill: #c3dfc4"/>
   </g>
   <g id="patch_14">
    <path d="M 356.244996 76558.468511 
L 373.700661 76558.468511 
L 373.700661 100.672338 
L 356.244996 100.672338 
z
" clip-path="url(#p024d874cbb)" style="fill: #c3dfc4"/>
   </g>
   <g id="patch_15">
    <path d="M 472.616099 76558.468511 
L 490.071765 76558.468511 
L 490.071765 89.16924 
L 472.616099 89.16924 
z
" clip-path="url(#p024d874cbb)" style="fill: #c3dfc4"/>
   </g>
   <g id="patch_16">
    <path d="M 140.958454 76558.468511 
L 158.414119 76558.468511 
L 158.414119 303.799522 
L 140.958454 303.799522 
z
" clip-path="url(#p024d874cbb)" style="fill: #f4b9b9"/>
   </g>
   <g id="patch_17">
    <path d="M 257.329557 76558.468511 
L 274.785223 76558.468511 
L 274.785223 82.71135 
L 257.329557 82.71135 
z
" clip-path="url(#p024d874cbb)" style="fill: #f4b9b9"/>
   </g>
   <g id="patch_18">
    <path d="M 373.700661 76558.468511 
L 391.156327 76558.468511 
L 391.156327 99.015502 
L 373.700661 99.015502 
z
" clip-path="url(#p024d874cbb)" style="fill: #f4b9b9"/>
   </g>
   <g id="patch_19">
    <path d="M 490.071765 76558.468511 
L 507.527431 76558.468511 
L 507.527431 88.008264 
L 490.071765 88.008264 
z
" clip-path="url(#p024d874cbb)" style="fill: #f4b9b9"/>
   </g>
   <g id="patch_20">
    <path d="M 158.414119 76558.468511 
L 175.869785 76558.468511 
L 175.869785 267.089855 
L 158.414119 267.089855 
z
" clip-path="url(#p024d874cbb)" style="fill: #d1c4d9"/>
   </g>
   <g id="patch_21">
    <path d="M 274.785223 76558.468511 
L 292.240889 76558.468511 
L 292.240889 84.725679 
L 274.785223 84.725679 
z
" clip-path="url(#p024d874cbb)" style="fill: #d1c4d9"/>
   </g>
   <g id="patch_22">
    <path d="M 391.156327 76558.468511 
L 408.611992 76558.468511 
L 408.611992 92.284101 
L 391.156327 92.284101 
z
" clip-path="url(#p024d874cbb)" style="fill: #d1c4d9"/>
   </g>
   <g id="patch_23">
    <path d="M 507.527431 76558.468511 
L 524.983096 76558.468511 
L 524.983096 80.32298 
L 507.527431 80.32298 
z
" clip-path="url(#p024d874cbb)" style="fill: #d1c4d9"/>
   </g>
   <g id="patch_24">
    <path d="M 239.873892 76558.468511 
L 257.329557 76558.468511 
L 257.329557 303.406904 
L 239.873892 303.406904 
z
" clip-path="url(#p024d874cbb)" style="fill: #8fba5d"/>
   </g>
   <g id="patch_25">
    <path d="M 356.244996 76558.468511 
L 373.700661 76558.468511 
L 373.700661 259.219968 
L 356.244996 259.219968 
z
" clip-path="url(#p024d874cbb)" style="fill: #8fba5d"/>
   </g>
   <g id="patch_26">
    <path d="M 472.616099 76558.468511 
L 490.071765 76558.468511 
L 490.071765 244.323467 
L 472.616099 244.323467 
z
" clip-path="url(#p024d874cbb)" style="fill: #8fba5d"/>
   </g>
   <g id="matplotlib.axis_1">
    <g id="xtick_1">
     <g id="line2d_1">
      <defs>
       <path id="macb33046b2" d="M 0 0 
L 0 3.5 
" style="stroke: #000000; stroke-width: 0.8"/>
      </defs>
      <g>
       <use xlink:href="#macb33046b2" x="132.230621" y="378.548313" style="stroke: #000000; stroke-width: 0.8"/>
      </g>
     </g>
     <g id="text_1">
      <!-- ALLoc -->
      <g transform="translate(109.548121 397.000813) scale(0.16 -0.16)">
       <defs>
        <path id="ArialMT-41" d="M -9 0 
L 1750 4581 
L 2403 4581 
L 4278 0 
L 3588 0 
L 3053 1388 
L 1138 1388 
L 634 0 
L -9 0 
z
M 1313 1881 
L 2866 1881 
L 2388 3150 
Q 2169 3728 2063 4100 
Q 1975 3659 1816 3225 
L 1313 1881 
z
" transform="scale(0.015625)"/>
        <path id="ArialMT-4c" d="M 469 0 
L 469 4581 
L 1075 4581 
L 1075 541 
L 3331 541 
L 3331 0 
L 469 0 
z
" transform="scale(0.015625)"/>
        <path id="ArialMT-6f" d="M 213 1659 
Q 213 2581 725 3025 
Q 1153 3394 1769 3394 
Q 2453 3394 2887 2945 
Q 3322 2497 3322 1706 
Q 3322 1066 3130 698 
Q 2938 331 2570 128 
Q 2203 -75 1769 -75 
Q 1072 -75 642 372 
Q 213 819 213 1659 
z
M 791 1659 
Q 791 1022 1069 705 
Q 1347 388 1769 388 
Q 2188 388 2466 706 
Q 2744 1025 2744 1678 
Q 2744 2294 2464 2611 
Q 2184 2928 1769 2928 
Q 1347 2928 1069 2612 
Q 791 2297 791 1659 
z
" transform="scale(0.015625)"/>
        <path id="ArialMT-63" d="M 2588 1216 
L 3141 1144 
Q 3050 572 2676 248 
Q 2303 -75 1759 -75 
Q 1078 -75 664 370 
Q 250 816 250 1647 
Q 250 2184 428 2587 
Q 606 2991 970 3192 
Q 1334 3394 1763 3394 
Q 2303 3394 2647 3120 
Q 2991 2847 3088 2344 
L 2541 2259 
Q 2463 2594 2264 2762 
Q 2066 2931 1784 2931 
Q 1359 2931 1093 2626 
Q 828 2322 828 1663 
Q 828 994 1084 691 
Q 1341 388 1753 388 
Q 2084 388 2306 591 
Q 2528 794 2588 1216 
z
" transform="scale(0.015625)"/>
       </defs>
       <use xlink:href="#ArialMT-41"/>
       <use xlink:href="#ArialMT-4c" x="66.699219"/>
       <use xlink:href="#ArialMT-4c" x="122.314453"/>
       <use xlink:href="#ArialMT-6f" x="177.929688"/>
       <use xlink:href="#ArialMT-63" x="233.544922"/>
      </g>
     </g>
    </g>
    <g id="xtick_2">
     <g id="line2d_2">
      <g>
       <use xlink:href="#macb33046b2" x="248.601725" y="378.548313" style="stroke: #000000; stroke-width: 0.8"/>
      </g>
     </g>
     <g id="text_2">
      <!-- MFCNet -->
      <g transform="translate(218.825475 397.000813) scale(0.16 -0.16)">
       <defs>
        <path id="ArialMT-4d" d="M 475 0 
L 475 4581 
L 1388 4581 
L 2472 1338 
Q 2622 884 2691 659 
Q 2769 909 2934 1394 
L 4031 4581 
L 4847 4581 
L 4847 0 
L 4263 0 
L 4263 3834 
L 2931 0 
L 2384 0 
L 1059 3900 
L 1059 0 
L 475 0 
z
" transform="scale(0.015625)"/>
        <path id="ArialMT-46" d="M 525 0 
L 525 4581 
L 3616 4581 
L 3616 4041 
L 1131 4041 
L 1131 2622 
L 3281 2622 
L 3281 2081 
L 1131 2081 
L 1131 0 
L 525 0 
z
" transform="scale(0.015625)"/>
        <path id="ArialMT-43" d="M 3763 1606 
L 4369 1453 
Q 4178 706 3683 314 
Q 3188 -78 2472 -78 
Q 1731 -78 1267 223 
Q 803 525 561 1097 
Q 319 1669 319 2325 
Q 319 3041 592 3573 
Q 866 4106 1370 4382 
Q 1875 4659 2481 4659 
Q 3169 4659 3637 4309 
Q 4106 3959 4291 3325 
L 3694 3184 
Q 3534 3684 3231 3912 
Q 2928 4141 2469 4141 
Q 1941 4141 1586 3887 
Q 1231 3634 1087 3207 
Q 944 2781 944 2328 
Q 944 1744 1114 1308 
Q 1284 872 1643 656 
Q 2003 441 2422 441 
Q 2931 441 3284 734 
Q 3638 1028 3763 1606 
z
" transform="scale(0.015625)"/>
        <path id="ArialMT-4e" d="M 488 0 
L 488 4581 
L 1109 4581 
L 3516 984 
L 3516 4581 
L 4097 4581 
L 4097 0 
L 3475 0 
L 1069 3600 
L 1069 0 
L 488 0 
z
" transform="scale(0.015625)"/>
        <path id="ArialMT-65" d="M 2694 1069 
L 3275 997 
Q 3138 488 2766 206 
Q 2394 -75 1816 -75 
Q 1088 -75 661 373 
Q 234 822 234 1631 
Q 234 2469 665 2931 
Q 1097 3394 1784 3394 
Q 2450 3394 2872 2941 
Q 3294 2488 3294 1666 
Q 3294 1616 3291 1516 
L 816 1516 
Q 847 969 1125 678 
Q 1403 388 1819 388 
Q 2128 388 2347 550 
Q 2566 713 2694 1069 
z
M 847 1978 
L 2700 1978 
Q 2663 2397 2488 2606 
Q 2219 2931 1791 2931 
Q 1403 2931 1139 2672 
Q 875 2413 847 1978 
z
" transform="scale(0.015625)"/>
        <path id="ArialMT-74" d="M 1650 503 
L 1731 6 
Q 1494 -44 1306 -44 
Q 1000 -44 831 53 
Q 663 150 594 308 
Q 525 466 525 972 
L 525 2881 
L 113 2881 
L 113 3319 
L 525 3319 
L 525 4141 
L 1084 4478 
L 1084 3319 
L 1650 3319 
L 1650 2881 
L 1084 2881 
L 1084 941 
Q 1084 700 1114 631 
Q 1144 563 1211 522 
Q 1278 481 1403 481 
Q 1497 481 1650 503 
z
" transform="scale(0.015625)"/>
       </defs>
       <use xlink:href="#ArialMT-4d"/>
       <use xlink:href="#ArialMT-46" x="83.300781"/>
       <use xlink:href="#ArialMT-43" x="144.384766"/>
       <use xlink:href="#ArialMT-4e" x="216.601562"/>
       <use xlink:href="#ArialMT-65" x="288.818359"/>
       <use xlink:href="#ArialMT-74" x="344.433594"/>
      </g>
     </g>
    </g>
    <g id="xtick_3">
     <g id="line2d_3">
      <g>
       <use xlink:href="#macb33046b2" x="364.972828" y="378.548313" style="stroke: #000000; stroke-width: 0.8"/>
      </g>
     </g>
     <g id="text_3">
      <!-- AD_CNN -->
      <g transform="translate(332.077828 397.195813) scale(0.16 -0.16)">
       <defs>
        <path id="ArialMT-44" d="M 494 0 
L 494 4581 
L 2072 4581 
Q 2606 4581 2888 4516 
Q 3281 4425 3559 4188 
Q 3922 3881 4101 3404 
Q 4281 2928 4281 2316 
Q 4281 1794 4159 1391 
Q 4038 988 3847 723 
Q 3656 459 3429 307 
Q 3203 156 2883 78 
Q 2563 0 2147 0 
L 494 0 
z
M 1100 541 
L 2078 541 
Q 2531 541 2789 625 
Q 3047 709 3200 863 
Q 3416 1078 3536 1442 
Q 3656 1806 3656 2325 
Q 3656 3044 3420 3430 
Q 3184 3816 2847 3947 
Q 2603 4041 2063 4041 
L 1100 4041 
L 1100 541 
z
" transform="scale(0.015625)"/>
        <path id="ArialMT-5f" d="M -97 -1272 
L -97 -866 
L 3631 -866 
L 3631 -1272 
L -97 -1272 
z
" transform="scale(0.015625)"/>
       </defs>
       <use xlink:href="#ArialMT-41"/>
       <use xlink:href="#ArialMT-44" x="66.699219"/>
       <use xlink:href="#ArialMT-5f" x="138.916016"/>
       <use xlink:href="#ArialMT-43" x="194.53125"/>
       <use xlink:href="#ArialMT-4e" x="266.748047"/>
       <use xlink:href="#ArialMT-4e" x="338.964844"/>
      </g>
     </g>
    </g>
    <g id="xtick_4">
     <g id="line2d_4">
      <g>
       <use xlink:href="#macb33046b2" x="481.343932" y="378.548313" style="stroke: #000000; stroke-width: 0.8"/>
      </g>
     </g>
     <g id="text_4">
      <!-- CNN -->
      <g transform="translate(464.011432 397.000813) scale(0.16 -0.16)">
       <use xlink:href="#ArialMT-43"/>
       <use xlink:href="#ArialMT-4e" x="72.216797"/>
       <use xlink:href="#ArialMT-4e" x="144.433594"/>
      </g>
     </g>
    </g>
   </g>
   <g id="matplotlib.axis_2">
    <g id="ytick_1">
     <g id="line2d_5">
      <path d="M 66.771875 321.010952 
L 546.802678 321.010952 
" clip-path="url(#p024d874cbb)" style="fill: none; stroke-dasharray: 2.96,1.28; stroke-dashoffset: 0; stroke: #b0b0b0; stroke-opacity: 0.6; stroke-width: 0.8"/>
     </g>
     <g id="line2d_6">
      <defs>
       <path id="m6a6ccd9928" d="M 0 0 
L -3.5 0 
" style="stroke: #000000; stroke-width: 0.8"/>
      </defs>
      <g>
       <use xlink:href="#m6a6ccd9928" x="66.771875" y="321.010952" style="stroke: #000000; stroke-width: 0.8"/>
      </g>
     </g>
     <g id="text_5">
      <!-- $\mathdefault{10^{-2}}$ -->
      <g transform="translate(28.091875 329.260952) scale(0.16 -0.16)">
       <defs>
        <path id="ArialMT-31" d="M 2384 0 
L 1822 0 
L 1822 3584 
Q 1619 3391 1289 3197 
Q 959 3003 697 2906 
L 697 3450 
Q 1169 3672 1522 3987 
Q 1875 4303 2022 4600 
L 2384 4600 
L 2384 0 
z
" transform="scale(0.015625)"/>
        <path id="ArialMT-30" d="M 266 2259 
Q 266 3072 433 3567 
Q 600 4063 929 4331 
Q 1259 4600 1759 4600 
Q 2128 4600 2406 4451 
Q 2684 4303 2865 4023 
Q 3047 3744 3150 3342 
Q 3253 2941 3253 2259 
Q 3253 1453 3087 958 
Q 2922 463 2592 192 
Q 2263 -78 1759 -78 
Q 1097 -78 719 397 
Q 266 969 266 2259 
z
M 844 2259 
Q 844 1131 1108 757 
Q 1372 384 1759 384 
Q 2147 384 2411 759 
Q 2675 1134 2675 2259 
Q 2675 3391 2411 3762 
Q 2147 4134 1753 4134 
Q 1366 4134 1134 3806 
Q 844 3388 844 2259 
z
" transform="scale(0.015625)"/>
        <path id="ArialMT-2212" d="M 3381 1997 
L 356 1997 
L 356 2522 
L 3381 2522 
L 3381 1997 
z
" transform="scale(0.015625)"/>
        <path id="ArialMT-32" d="M 3222 541 
L 3222 0 
L 194 0 
Q 188 203 259 391 
Q 375 700 629 1000 
Q 884 1300 1366 1694 
Q 2113 2306 2375 2664 
Q 2638 3022 2638 3341 
Q 2638 3675 2398 3904 
Q 2159 4134 1775 4134 
Q 1369 4134 1125 3890 
Q 881 3647 878 3216 
L 300 3275 
Q 359 3922 746 4261 
Q 1134 4600 1788 4600 
Q 2447 4600 2831 4234 
Q 3216 3869 3216 3328 
Q 3216 3053 3103 2787 
Q 2991 2522 2730 2228 
Q 2469 1934 1863 1422 
Q 1356 997 1212 845 
Q 1069 694 975 541 
L 3222 541 
z
" transform="scale(0.015625)"/>
       </defs>
       <use xlink:href="#ArialMT-31" transform="translate(0 0.99375)"/>
       <use xlink:href="#ArialMT-30" transform="translate(55.615234 0.99375)"/>
       <use xlink:href="#ArialMT-2212" transform="translate(112.972813 70.6875) scale(0.7)"/>
       <use xlink:href="#ArialMT-32" transform="translate(153.851719 70.6875) scale(0.7)"/>
      </g>
     </g>
    </g>
    <g id="ytick_2">
     <g id="line2d_7">
      <path d="M 66.771875 244.620714 
L 546.802678 244.620714 
" clip-path="url(#p024d874cbb)" style="fill: none; stroke-dasharray: 2.96,1.28; stroke-dashoffset: 0; stroke: #b0b0b0; stroke-opacity: 0.6; stroke-width: 0.8"/>
     </g>
     <g id="line2d_8">
      <g>
       <use xlink:href="#m6a6ccd9928" x="66.771875" y="244.620714" style="stroke: #000000; stroke-width: 0.8"/>
      </g>
     </g>
     <g id="text_6">
      <!-- $\mathdefault{10^{-1}}$ -->
      <g transform="translate(28.091875 252.870714) scale(0.16 -0.16)">
       <use xlink:href="#ArialMT-31" transform="translate(0 0.99375)"/>
       <use xlink:href="#ArialMT-30" transform="translate(55.615234 0.99375)"/>
       <use xlink:href="#ArialMT-2212" transform="translate(112.972813 70.6875) scale(0.7)"/>
       <use xlink:href="#ArialMT-31" transform="translate(153.851719 70.6875) scale(0.7)"/>
      </g>
     </g>
    </g>
    <g id="ytick_3">
     <g id="line2d_9">
      <path d="M 66.771875 168.230476 
L 546.802678 168.230476 
" clip-path="url(#p024d874cbb)" style="fill: none; stroke-dasharray: 2.96,1.28; stroke-dashoffset: 0; stroke: #b0b0b0; stroke-opacity: 0.6; stroke-width: 0.8"/>
     </g>
     <g id="line2d_10">
      <g>
       <use xlink:href="#m6a6ccd9928" x="66.771875" y="168.230476" style="stroke: #000000; stroke-width: 0.8"/>
      </g>
     </g>
     <g id="text_7">
      <!-- $\mathdefault{10^{0}}$ -->
      <g transform="translate(34.651875 176.480476) scale(0.16 -0.16)">
       <use xlink:href="#ArialMT-31" transform="translate(0 0.99375)"/>
       <use xlink:href="#ArialMT-30" transform="translate(55.615234 0.99375)"/>
       <use xlink:href="#ArialMT-30" transform="translate(112.972813 70.6875) scale(0.7)"/>
      </g>
     </g>
    </g>
    <g id="ytick_4">
     <g id="line2d_11">
      <path d="M 66.771875 91.840238 
L 546.802678 91.840238 
" clip-path="url(#p024d874cbb)" style="fill: none; stroke-dasharray: 2.96,1.28; stroke-dashoffset: 0; stroke: #b0b0b0; stroke-opacity: 0.6; stroke-width: 0.8"/>
     </g>
     <g id="line2d_12">
      <g>
       <use xlink:href="#m6a6ccd9928" x="66.771875" y="91.840238" style="stroke: #000000; stroke-width: 0.8"/>
      </g>
     </g>
     <g id="text_8">
      <!-- $\mathdefault{10^{1}}$ -->
      <g transform="translate(34.651875 100.090238) scale(0.16 -0.16)">
       <use xlink:href="#ArialMT-31" transform="translate(0 0.99375)"/>
       <use xlink:href="#ArialMT-30" transform="translate(55.615234 0.99375)"/>
       <use xlink:href="#ArialMT-31" transform="translate(112.972813 70.6875) scale(0.7)"/>
      </g>
     </g>
    </g>
    <g id="ytick_5">
     <g id="line2d_13">
      <path d="M 66.771875 15.45 
L 546.802678 15.45 
" clip-path="url(#p024d874cbb)" style="fill: none; stroke-dasharray: 2.96,1.28; stroke-dashoffset: 0; stroke: #b0b0b0; stroke-opacity: 0.6; stroke-width: 0.8"/>
     </g>
     <g id="line2d_14">
      <g>
       <use xlink:href="#m6a6ccd9928" x="66.771875" y="15.45" style="stroke: #000000; stroke-width: 0.8"/>
      </g>
     </g>
     <g id="text_9">
      <!-- $\mathdefault{10^{2}}$ -->
      <g transform="translate(34.651875 23.7) scale(0.16 -0.16)">
       <use xlink:href="#ArialMT-31" transform="translate(0 0.99375)"/>
       <use xlink:href="#ArialMT-30" transform="translate(55.615234 0.99375)"/>
       <use xlink:href="#ArialMT-32" transform="translate(112.972813 70.6875) scale(0.7)"/>
      </g>
     </g>
    </g>
    <g id="ytick_6">
     <g id="line2d_15">
      <defs>
       <path id="m169333d756" d="M 0 0 
L -2 0 
" style="stroke: #000000; stroke-width: 0.6"/>
      </defs>
      <g>
       <use xlink:href="#m169333d756" x="66.771875" y="374.405437" style="stroke: #000000; stroke-width: 0.6"/>
      </g>
     </g>
    </g>
    <g id="ytick_7">
     <g id="line2d_16">
      <g>
       <use xlink:href="#m169333d756" x="66.771875" y="360.953784" style="stroke: #000000; stroke-width: 0.6"/>
      </g>
     </g>
    </g>
    <g id="ytick_8">
     <g id="line2d_17">
      <g>
       <use xlink:href="#m169333d756" x="66.771875" y="351.409684" style="stroke: #000000; stroke-width: 0.6"/>
      </g>
     </g>
    </g>
    <g id="ytick_9">
     <g id="line2d_18">
      <g>
       <use xlink:href="#m169333d756" x="66.771875" y="344.006705" style="stroke: #000000; stroke-width: 0.6"/>
      </g>
     </g>
    </g>
    <g id="ytick_10">
     <g id="line2d_19">
      <g>
       <use xlink:href="#m169333d756" x="66.771875" y="337.958031" style="stroke: #000000; stroke-width: 0.6"/>
      </g>
     </g>
    </g>
    <g id="ytick_11">
     <g id="line2d_20">
      <g>
       <use xlink:href="#m169333d756" x="66.771875" y="332.84395" style="stroke: #000000; stroke-width: 0.6"/>
      </g>
     </g>
    </g>
    <g id="ytick_12">
     <g id="line2d_21">
      <g>
       <use xlink:href="#m169333d756" x="66.771875" y="328.413931" style="stroke: #000000; stroke-width: 0.6"/>
      </g>
     </g>
    </g>
    <g id="ytick_13">
     <g id="line2d_22">
      <g>
       <use xlink:href="#m169333d756" x="66.771875" y="324.506378" style="stroke: #000000; stroke-width: 0.6"/>
      </g>
     </g>
    </g>
    <g id="ytick_14">
     <g id="line2d_23">
      <g>
       <use xlink:href="#m169333d756" x="66.771875" y="298.015199" style="stroke: #000000; stroke-width: 0.6"/>
      </g>
     </g>
    </g>
    <g id="ytick_15">
     <g id="line2d_24">
      <g>
       <use xlink:href="#m169333d756" x="66.771875" y="284.563546" style="stroke: #000000; stroke-width: 0.6"/>
      </g>
     </g>
    </g>
    <g id="ytick_16">
     <g id="line2d_25">
      <g>
       <use xlink:href="#m169333d756" x="66.771875" y="275.019446" style="stroke: #000000; stroke-width: 0.6"/>
      </g>
     </g>
    </g>
    <g id="ytick_17">
     <g id="line2d_26">
      <g>
       <use xlink:href="#m169333d756" x="66.771875" y="267.616467" style="stroke: #000000; stroke-width: 0.6"/>
      </g>
     </g>
    </g>
    <g id="ytick_18">
     <g id="line2d_27">
      <g>
       <use xlink:href="#m169333d756" x="66.771875" y="261.567793" style="stroke: #000000; stroke-width: 0.6"/>
      </g>
     </g>
    </g>
    <g id="ytick_19">
     <g id="line2d_28">
      <g>
       <use xlink:href="#m169333d756" x="66.771875" y="256.453712" style="stroke: #000000; stroke-width: 0.6"/>
      </g>
     </g>
    </g>
    <g id="ytick_20">
     <g id="line2d_29">
      <g>
       <use xlink:href="#m169333d756" x="66.771875" y="252.023693" style="stroke: #000000; stroke-width: 0.6"/>
      </g>
     </g>
    </g>
    <g id="ytick_21">
     <g id="line2d_30">
      <g>
       <use xlink:href="#m169333d756" x="66.771875" y="248.11614" style="stroke: #000000; stroke-width: 0.6"/>
      </g>
     </g>
    </g>
    <g id="ytick_22">
     <g id="line2d_31">
      <g>
       <use xlink:href="#m169333d756" x="66.771875" y="221.624961" style="stroke: #000000; stroke-width: 0.6"/>
      </g>
     </g>
    </g>
    <g id="ytick_23">
     <g id="line2d_32">
      <g>
       <use xlink:href="#m169333d756" x="66.771875" y="208.173308" style="stroke: #000000; stroke-width: 0.6"/>
      </g>
     </g>
    </g>
    <g id="ytick_24">
     <g id="line2d_33">
      <g>
       <use xlink:href="#m169333d756" x="66.771875" y="198.629208" style="stroke: #000000; stroke-width: 0.6"/>
      </g>
     </g>
    </g>
    <g id="ytick_25">
     <g id="line2d_34">
      <g>
       <use xlink:href="#m169333d756" x="66.771875" y="191.226229" style="stroke: #000000; stroke-width: 0.6"/>
      </g>
     </g>
    </g>
    <g id="ytick_26">
     <g id="line2d_35">
      <g>
       <use xlink:href="#m169333d756" x="66.771875" y="185.177555" style="stroke: #000000; stroke-width: 0.6"/>
      </g>
     </g>
    </g>
    <g id="ytick_27">
     <g id="line2d_36">
      <g>
       <use xlink:href="#m169333d756" x="66.771875" y="180.063474" style="stroke: #000000; stroke-width: 0.6"/>
      </g>
     </g>
    </g>
    <g id="ytick_28">
     <g id="line2d_37">
      <g>
       <use xlink:href="#m169333d756" x="66.771875" y="175.633455" style="stroke: #000000; stroke-width: 0.6"/>
      </g>
     </g>
    </g>
    <g id="ytick_29">
     <g id="line2d_38">
      <g>
       <use xlink:href="#m169333d756" x="66.771875" y="171.725902" style="stroke: #000000; stroke-width: 0.6"/>
      </g>
     </g>
    </g>
    <g id="ytick_30">
     <g id="line2d_39">
      <g>
       <use xlink:href="#m169333d756" x="66.771875" y="145.234723" style="stroke: #000000; stroke-width: 0.6"/>
      </g>
     </g>
    </g>
    <g id="ytick_31">
     <g id="line2d_40">
      <g>
       <use xlink:href="#m169333d756" x="66.771875" y="131.78307" style="stroke: #000000; stroke-width: 0.6"/>
      </g>
     </g>
    </g>
    <g id="ytick_32">
     <g id="line2d_41">
      <g>
       <use xlink:href="#m169333d756" x="66.771875" y="122.23897" style="stroke: #000000; stroke-width: 0.6"/>
      </g>
     </g>
    </g>
    <g id="ytick_33">
     <g id="line2d_42">
      <g>
       <use xlink:href="#m169333d756" x="66.771875" y="114.835991" style="stroke: #000000; stroke-width: 0.6"/>
      </g>
     </g>
    </g>
    <g id="ytick_34">
     <g id="line2d_43">
      <g>
       <use xlink:href="#m169333d756" x="66.771875" y="108.787317" style="stroke: #000000; stroke-width: 0.6"/>
      </g>
     </g>
    </g>
    <g id="ytick_35">
     <g id="line2d_44">
      <g>
       <use xlink:href="#m169333d756" x="66.771875" y="103.673236" style="stroke: #000000; stroke-width: 0.6"/>
      </g>
     </g>
    </g>
    <g id="ytick_36">
     <g id="line2d_45">
      <g>
       <use xlink:href="#m169333d756" x="66.771875" y="99.243217" style="stroke: #000000; stroke-width: 0.6"/>
      </g>
     </g>
    </g>
    <g id="ytick_37">
     <g id="line2d_46">
      <g>
       <use xlink:href="#m169333d756" x="66.771875" y="95.335664" style="stroke: #000000; stroke-width: 0.6"/>
      </g>
     </g>
    </g>
    <g id="ytick_38">
     <g id="line2d_47">
      <g>
       <use xlink:href="#m169333d756" x="66.771875" y="68.844485" style="stroke: #000000; stroke-width: 0.6"/>
      </g>
     </g>
    </g>
    <g id="ytick_39">
     <g id="line2d_48">
      <g>
       <use xlink:href="#m169333d756" x="66.771875" y="55.392832" style="stroke: #000000; stroke-width: 0.6"/>
      </g>
     </g>
    </g>
    <g id="ytick_40">
     <g id="line2d_49">
      <g>
       <use xlink:href="#m169333d756" x="66.771875" y="45.848732" style="stroke: #000000; stroke-width: 0.6"/>
      </g>
     </g>
    </g>
    <g id="ytick_41">
     <g id="line2d_50">
      <g>
       <use xlink:href="#m169333d756" x="66.771875" y="38.445753" style="stroke: #000000; stroke-width: 0.6"/>
      </g>
     </g>
    </g>
    <g id="ytick_42">
     <g id="line2d_51">
      <g>
       <use xlink:href="#m169333d756" x="66.771875" y="32.397079" style="stroke: #000000; stroke-width: 0.6"/>
      </g>
     </g>
    </g>
    <g id="ytick_43">
     <g id="line2d_52">
      <g>
       <use xlink:href="#m169333d756" x="66.771875" y="27.282998" style="stroke: #000000; stroke-width: 0.6"/>
      </g>
     </g>
    </g>
    <g id="ytick_44">
     <g id="line2d_53">
      <g>
       <use xlink:href="#m169333d756" x="66.771875" y="22.852979" style="stroke: #000000; stroke-width: 0.6"/>
      </g>
     </g>
    </g>
    <g id="ytick_45">
     <g id="line2d_54">
      <g>
       <use xlink:href="#m169333d756" x="66.771875" y="18.945426" style="stroke: #000000; stroke-width: 0.6"/>
      </g>
     </g>
    </g>
    <g id="text_10">
     <!-- Localization Error (m) -->
     <g transform="translate(20.303437 279.992319) rotate(-90) scale(0.18 -0.18)">
      <defs>
       <path id="ArialMT-61" d="M 2588 409 
Q 2275 144 1986 34 
Q 1697 -75 1366 -75 
Q 819 -75 525 192 
Q 231 459 231 875 
Q 231 1119 342 1320 
Q 453 1522 633 1644 
Q 813 1766 1038 1828 
Q 1203 1872 1538 1913 
Q 2219 1994 2541 2106 
Q 2544 2222 2544 2253 
Q 2544 2597 2384 2738 
Q 2169 2928 1744 2928 
Q 1347 2928 1158 2789 
Q 969 2650 878 2297 
L 328 2372 
Q 403 2725 575 2942 
Q 747 3159 1072 3276 
Q 1397 3394 1825 3394 
Q 2250 3394 2515 3294 
Q 2781 3194 2906 3042 
Q 3031 2891 3081 2659 
Q 3109 2516 3109 2141 
L 3109 1391 
Q 3109 606 3145 398 
Q 3181 191 3288 0 
L 2700 0 
Q 2613 175 2588 409 
z
M 2541 1666 
Q 2234 1541 1622 1453 
Q 1275 1403 1131 1340 
Q 988 1278 909 1158 
Q 831 1038 831 891 
Q 831 666 1001 516 
Q 1172 366 1500 366 
Q 1825 366 2078 508 
Q 2331 650 2450 897 
Q 2541 1088 2541 1459 
L 2541 1666 
z
" transform="scale(0.015625)"/>
       <path id="ArialMT-6c" d="M 409 0 
L 409 4581 
L 972 4581 
L 972 0 
L 409 0 
z
" transform="scale(0.015625)"/>
       <path id="ArialMT-69" d="M 425 3934 
L 425 4581 
L 988 4581 
L 988 3934 
L 425 3934 
z
M 425 0 
L 425 3319 
L 988 3319 
L 988 0 
L 425 0 
z
" transform="scale(0.015625)"/>
       <path id="ArialMT-7a" d="M 125 0 
L 125 456 
L 2238 2881 
Q 1878 2863 1603 2863 
L 250 2863 
L 250 3319 
L 2963 3319 
L 2963 2947 
L 1166 841 
L 819 456 
Q 1197 484 1528 484 
L 3063 484 
L 3063 0 
L 125 0 
z
" transform="scale(0.015625)"/>
       <path id="ArialMT-6e" d="M 422 0 
L 422 3319 
L 928 3319 
L 928 2847 
Q 1294 3394 1984 3394 
Q 2284 3394 2536 3286 
Q 2788 3178 2913 3003 
Q 3038 2828 3088 2588 
Q 3119 2431 3119 2041 
L 3119 0 
L 2556 0 
L 2556 2019 
Q 2556 2363 2490 2533 
Q 2425 2703 2258 2804 
Q 2091 2906 1866 2906 
Q 1506 2906 1245 2678 
Q 984 2450 984 1813 
L 984 0 
L 422 0 
z
" transform="scale(0.015625)"/>
       <path id="ArialMT-20" transform="scale(0.015625)"/>
       <path id="ArialMT-45" d="M 506 0 
L 506 4581 
L 3819 4581 
L 3819 4041 
L 1113 4041 
L 1113 2638 
L 3647 2638 
L 3647 2100 
L 1113 2100 
L 1113 541 
L 3925 541 
L 3925 0 
L 506 0 
z
" transform="scale(0.015625)"/>
       <path id="ArialMT-72" d="M 416 0 
L 416 3319 
L 922 3319 
L 922 2816 
Q 1116 3169 1280 3281 
Q 1444 3394 1641 3394 
Q 1925 3394 2219 3213 
L 2025 2691 
Q 1819 2813 1613 2813 
Q 1428 2813 1281 2702 
Q 1134 2591 1072 2394 
Q 978 2094 978 1738 
L 978 0 
L 416 0 
z
" transform="scale(0.015625)"/>
       <path id="ArialMT-28" d="M 1497 -1347 
Q 1031 -759 709 28 
Q 388 816 388 1659 
Q 388 2403 628 3084 
Q 909 3875 1497 4659 
L 1900 4659 
Q 1522 4009 1400 3731 
Q 1209 3300 1100 2831 
Q 966 2247 966 1656 
Q 966 153 1900 -1347 
L 1497 -1347 
z
" transform="scale(0.015625)"/>
       <path id="ArialMT-6d" d="M 422 0 
L 422 3319 
L 925 3319 
L 925 2853 
Q 1081 3097 1340 3245 
Q 1600 3394 1931 3394 
Q 2300 3394 2536 3241 
Q 2772 3088 2869 2813 
Q 3263 3394 3894 3394 
Q 4388 3394 4653 3120 
Q 4919 2847 4919 2278 
L 4919 0 
L 4359 0 
L 4359 2091 
Q 4359 2428 4304 2576 
Q 4250 2725 4106 2815 
Q 3963 2906 3769 2906 
Q 3419 2906 3187 2673 
Q 2956 2441 2956 1928 
L 2956 0 
L 2394 0 
L 2394 2156 
Q 2394 2531 2256 2718 
Q 2119 2906 1806 2906 
Q 1569 2906 1367 2781 
Q 1166 2656 1075 2415 
Q 984 2175 984 1722 
L 984 0 
L 422 0 
z
" transform="scale(0.015625)"/>
       <path id="ArialMT-29" d="M 791 -1347 
L 388 -1347 
Q 1322 153 1322 1656 
Q 1322 2244 1188 2822 
Q 1081 3291 891 3722 
Q 769 4003 388 4659 
L 791 4659 
Q 1378 3875 1659 3084 
Q 1900 2403 1900 1659 
Q 1900 816 1576 28 
Q 1253 -759 791 -1347 
z
" transform="scale(0.015625)"/>
      </defs>
      <use xlink:href="#ArialMT-4c"/>
      <use xlink:href="#ArialMT-6f" x="55.615234"/>
      <use xlink:href="#ArialMT-63" x="111.230469"/>
      <use xlink:href="#ArialMT-61" x="161.230469"/>
      <use xlink:href="#ArialMT-6c" x="216.845703"/>
      <use xlink:href="#ArialMT-69" x="239.0625"/>
      <use xlink:href="#ArialMT-7a" x="261.279297"/>
      <use xlink:href="#ArialMT-61" x="311.279297"/>
      <use xlink:href="#ArialMT-74" x="366.894531"/>
      <use xlink:href="#ArialMT-69" x="394.677734"/>
      <use xlink:href="#ArialMT-6f" x="416.894531"/>
      <use xlink:href="#ArialMT-6e" x="472.509766"/>
      <use xlink:href="#ArialMT-20" x="528.125"/>
      <use xlink:href="#ArialMT-45" x="555.908203"/>
      <use xlink:href="#ArialMT-72" x="622.607422"/>
      <use xlink:href="#ArialMT-72" x="655.908203"/>
      <use xlink:href="#ArialMT-6f" x="689.208984"/>
      <use xlink:href="#ArialMT-72" x="744.824219"/>
      <use xlink:href="#ArialMT-20" x="778.125"/>
      <use xlink:href="#ArialMT-28" x="805.908203"/>
      <use xlink:href="#ArialMT-6d" x="839.208984"/>
      <use xlink:href="#ArialMT-29" x="922.509766"/>
     </g>
    </g>
   </g>
   <g id="LineCollection_1">
    <path d="M 97.31929 350.590485 
L 97.31929 258.155411 
" clip-path="url(#p024d874cbb)" style="fill: none; stroke: #000000; stroke-width: 1.2"/>
    <path d="M 213.690394 176.286775 
L 213.690394 34.06841 
" clip-path="url(#p024d874cbb)" style="fill: none; stroke: #000000; stroke-width: 1.2"/>
    <path d="M 330.061497 163.155281 
L 330.061497 58.719368 
" clip-path="url(#p024d874cbb)" style="fill: none; stroke: #000000; stroke-width: 1.2"/>
    <path d="M 446.432601 159.274626 
L 446.432601 48.989876 
" clip-path="url(#p024d874cbb)" style="fill: none; stroke: #000000; stroke-width: 1.2"/>
   </g>
   <g id="line2d_55">
    <defs>
     <path id="m94b9dfbd6f" d="M 3 0 
L -3 -0 
" style="stroke: #000000"/>
    </defs>
    <g clip-path="url(#p024d874cbb)">
     <use xlink:href="#m94b9dfbd6f" x="97.31929" y="350.590485" style="stroke: #000000"/>
     <use xlink:href="#m94b9dfbd6f" x="213.690394" y="176.286775" style="stroke: #000000"/>
     <use xlink:href="#m94b9dfbd6f" x="330.061497" y="163.155281" style="stroke: #000000"/>
     <use xlink:href="#m94b9dfbd6f" x="446.432601" y="159.274626" style="stroke: #000000"/>
    </g>
   </g>
   <g id="line2d_56">
    <g clip-path="url(#p024d874cbb)">
     <use xlink:href="#m94b9dfbd6f" x="97.31929" y="258.155411" style="stroke: #000000"/>
     <use xlink:href="#m94b9dfbd6f" x="213.690394" y="34.06841" style="stroke: #000000"/>
     <use xlink:href="#m94b9dfbd6f" x="330.061497" y="58.719368" style="stroke: #000000"/>
     <use xlink:href="#m94b9dfbd6f" x="446.432601" y="48.989876" style="stroke: #000000"/>
    </g>
   </g>
   <g id="LineCollection_2">
    <path d="M 114.774955 351.409684 
L 114.774955 267.682885 
" clip-path="url(#p024d874cbb)" style="fill: none; stroke: #000000; stroke-width: 1.2"/>
    <path d="M 231.146059 173.641702 
L 231.146059 32.682175 
" clip-path="url(#p024d874cbb)" style="fill: none; stroke: #000000; stroke-width: 1.2"/>
    <path d="M 347.517163 163.810827 
L 347.517163 65.744827 
" clip-path="url(#p024d874cbb)" style="fill: none; stroke: #000000; stroke-width: 1.2"/>
    <path d="M 463.888267 156.392171 
L 463.888267 43.981559 
" clip-path="url(#p024d874cbb)" style="fill: none; stroke: #000000; stroke-width: 1.2"/>
   </g>
   <g id="line2d_57">
    <g clip-path="url(#p024d874cbb)">
     <use xlink:href="#m94b9dfbd6f" x="114.774955" y="351.409684" style="stroke: #000000"/>
     <use xlink:href="#m94b9dfbd6f" x="231.146059" y="173.641702" style="stroke: #000000"/>
     <use xlink:href="#m94b9dfbd6f" x="347.517163" y="163.810827" style="stroke: #000000"/>
     <use xlink:href="#m94b9dfbd6f" x="463.888267" y="156.392171" style="stroke: #000000"/>
    </g>
   </g>
   <g id="line2d_58">
    <g clip-path="url(#p024d874cbb)">
     <use xlink:href="#m94b9dfbd6f" x="114.774955" y="267.682885" style="stroke: #000000"/>
     <use xlink:href="#m94b9dfbd6f" x="231.146059" y="32.682175" style="stroke: #000000"/>
     <use xlink:href="#m94b9dfbd6f" x="347.517163" y="65.744827" style="stroke: #000000"/>
     <use xlink:href="#m94b9dfbd6f" x="463.888267" y="43.981559" style="stroke: #000000"/>
    </g>
   </g>
   <g id="LineCollection_3">
    <path d="M 132.230621 349.791029 
L 132.230621 267.882941 
" clip-path="url(#p024d874cbb)" style="fill: none; stroke: #000000; stroke-width: 1.2"/>
    <path d="M 248.601725 177.374465 
L 248.601725 37.491666 
" clip-path="url(#p024d874cbb)" style="fill: none; stroke: #000000; stroke-width: 1.2"/>
    <path d="M 364.972828 164.352425 
L 364.972828 69.113468 
" clip-path="url(#p024d874cbb)" style="fill: none; stroke: #000000; stroke-width: 1.2"/>
    <path d="M 481.343932 159.130576 
L 481.343932 51.81692 
" clip-path="url(#p024d874cbb)" style="fill: none; stroke: #000000; stroke-width: 1.2"/>
   </g>
   <g id="line2d_59">
    <g clip-path="url(#p024d874cbb)">
     <use xlink:href="#m94b9dfbd6f" x="132.230621" y="349.791029" style="stroke: #000000"/>
     <use xlink:href="#m94b9dfbd6f" x="248.601725" y="177.374465" style="stroke: #000000"/>
     <use xlink:href="#m94b9dfbd6f" x="364.972828" y="164.352425" style="stroke: #000000"/>
     <use xlink:href="#m94b9dfbd6f" x="481.343932" y="159.130576" style="stroke: #000000"/>
    </g>
   </g>
   <g id="line2d_60">
    <g clip-path="url(#p024d874cbb)">
     <use xlink:href="#m94b9dfbd6f" x="132.230621" y="267.882941" style="stroke: #000000"/>
     <use xlink:href="#m94b9dfbd6f" x="248.601725" y="37.491666" style="stroke: #000000"/>
     <use xlink:href="#m94b9dfbd6f" x="364.972828" y="69.113468" style="stroke: #000000"/>
     <use xlink:href="#m94b9dfbd6f" x="481.343932" y="51.81692" style="stroke: #000000"/>
    </g>
   </g>
   <g id="LineCollection_4">
    <path d="M 149.686286 362.078497 
L 149.686286 277.875977 
" clip-path="url(#p024d874cbb)" style="fill: none; stroke: #000000; stroke-width: 1.2"/>
    <path d="M 266.05739 176.841212 
L 266.05739 36.229222 
" clip-path="url(#p024d874cbb)" style="fill: none; stroke: #000000; stroke-width: 1.2"/>
    <path d="M 382.428494 166.932485 
L 382.428494 65.826966 
" clip-path="url(#p024d874cbb)" style="fill: none; stroke: #000000; stroke-width: 1.2"/>
    <path d="M 498.799598 164.813105 
L 498.799598 51.221903 
" clip-path="url(#p024d874cbb)" style="fill: none; stroke: #000000; stroke-width: 1.2"/>
   </g>
   <g id="line2d_61">
    <g clip-path="url(#p024d874cbb)">
     <use xlink:href="#m94b9dfbd6f" x="149.686286" y="362.078497" style="stroke: #000000"/>
     <use xlink:href="#m94b9dfbd6f" x="266.05739" y="176.841212" style="stroke: #000000"/>
     <use xlink:href="#m94b9dfbd6f" x="382.428494" y="166.932485" style="stroke: #000000"/>
     <use xlink:href="#m94b9dfbd6f" x="498.799598" y="164.813105" style="stroke: #000000"/>
    </g>
   </g>
   <g id="line2d_62">
    <g clip-path="url(#p024d874cbb)">
     <use xlink:href="#m94b9dfbd6f" x="149.686286" y="277.875977" style="stroke: #000000"/>
     <use xlink:href="#m94b9dfbd6f" x="266.05739" y="36.229222" style="stroke: #000000"/>
     <use xlink:href="#m94b9dfbd6f" x="382.428494" y="65.826966" style="stroke: #000000"/>
     <use xlink:href="#m94b9dfbd6f" x="498.799598" y="51.221903" style="stroke: #000000"/>
    </g>
   </g>
   <g id="LineCollection_5">
    <path d="M 167.141952 342.073584 
L 167.141952 240.801748 
" clip-path="url(#p024d874cbb)" style="fill: none; stroke: #000000; stroke-width: 1.2"/>
    <path d="M 283.513056 180.72888 
L 283.513056 36.935269 
" clip-path="url(#p024d874cbb)" style="fill: none; stroke: #000000; stroke-width: 1.2"/>
    <path d="M 399.88416 162.317547 
L 399.88416 53.321661 
" clip-path="url(#p024d874cbb)" style="fill: none; stroke: #000000; stroke-width: 1.2"/>
    <path d="M 516.255263 153.755266 
L 516.255263 41.522717 
" clip-path="url(#p024d874cbb)" style="fill: none; stroke: #000000; stroke-width: 1.2"/>
   </g>
   <g id="line2d_63">
    <g clip-path="url(#p024d874cbb)">
     <use xlink:href="#m94b9dfbd6f" x="167.141952" y="342.073584" style="stroke: #000000"/>
     <use xlink:href="#m94b9dfbd6f" x="283.513056" y="180.72888" style="stroke: #000000"/>
     <use xlink:href="#m94b9dfbd6f" x="399.88416" y="162.317547" style="stroke: #000000"/>
     <use xlink:href="#m94b9dfbd6f" x="516.255263" y="153.755266" style="stroke: #000000"/>
    </g>
   </g>
   <g id="line2d_64">
    <g clip-path="url(#p024d874cbb)">
     <use xlink:href="#m94b9dfbd6f" x="167.141952" y="240.801748" style="stroke: #000000"/>
     <use xlink:href="#m94b9dfbd6f" x="283.513056" y="36.935269" style="stroke: #000000"/>
     <use xlink:href="#m94b9dfbd6f" x="399.88416" y="53.321661" style="stroke: #000000"/>
     <use xlink:href="#m94b9dfbd6f" x="516.255263" y="41.522717" style="stroke: #000000"/>
    </g>
   </g>
   <g id="patch_27">
    <path d="M 66.771875 378.548313 
L 66.771875 9.401326 
" style="fill: none; stroke: #000000; stroke-linejoin: miter; stroke-linecap: square"/>
   </g>
   <g id="patch_28">
    <path d="M 546.802678 378.548313 
L 546.802678 9.401326 
" style="fill: none; stroke: #000000; stroke-linejoin: miter; stroke-linecap: square"/>
   </g>
   <g id="patch_29">
    <path d="M 66.771875 378.548313 
L 546.802678 378.548313 
" style="fill: none; stroke: #000000; stroke-linejoin: miter; stroke-linecap: square"/>
   </g>
   <g id="patch_30">
    <path d="M 66.771875 9.401326 
L 546.802678 9.401326 
" style="fill: none; stroke: #000000; stroke-linejoin: miter; stroke-linecap: square"/>
   </g>
   <g id="legend_1">
    <g id="patch_31">
     <path d="M 76.671875 34.361701 
L 98.671875 34.361701 
L 98.671875 26.661701 
L 76.671875 26.661701 
z
" style="fill: #8fba5d"/>
    </g>
    <g id="text_11">
     <!-- Scen. 3 - specific learning -->
     <g transform="translate(107.471875 27.308982) scale(0.11 -0.11)">
      <defs>
       <path id="ArialMT-53" d="M 288 1472 
L 859 1522 
Q 900 1178 1048 958 
Q 1197 738 1509 602 
Q 1822 466 2213 466 
Q 2559 466 2825 569 
Q 3091 672 3220 851 
Q 3350 1031 3350 1244 
Q 3350 1459 3225 1620 
Q 3100 1781 2813 1891 
Q 2628 1963 1997 2114 
Q 1366 2266 1113 2400 
Q 784 2572 623 2826 
Q 463 3081 463 3397 
Q 463 3744 659 4045 
Q 856 4347 1234 4503 
Q 1613 4659 2075 4659 
Q 2584 4659 2973 4495 
Q 3363 4331 3572 4012 
Q 3781 3694 3797 3291 
L 3216 3247 
Q 3169 3681 2898 3903 
Q 2628 4125 2100 4125 
Q 1550 4125 1298 3923 
Q 1047 3722 1047 3438 
Q 1047 3191 1225 3031 
Q 1400 2872 2139 2705 
Q 2878 2538 3153 2413 
Q 3553 2228 3743 1945 
Q 3934 1663 3934 1294 
Q 3934 928 3725 604 
Q 3516 281 3123 101 
Q 2731 -78 2241 -78 
Q 1619 -78 1198 103 
Q 778 284 539 648 
Q 300 1013 288 1472 
z
" transform="scale(0.015625)"/>
       <path id="ArialMT-2e" d="M 581 0 
L 581 641 
L 1222 641 
L 1222 0 
L 581 0 
z
" transform="scale(0.015625)"/>
       <path id="ArialMT-33" d="M 269 1209 
L 831 1284 
Q 928 806 1161 595 
Q 1394 384 1728 384 
Q 2125 384 2398 659 
Q 2672 934 2672 1341 
Q 2672 1728 2419 1979 
Q 2166 2231 1775 2231 
Q 1616 2231 1378 2169 
L 1441 2663 
Q 1497 2656 1531 2656 
Q 1891 2656 2178 2843 
Q 2466 3031 2466 3422 
Q 2466 3731 2256 3934 
Q 2047 4138 1716 4138 
Q 1388 4138 1169 3931 
Q 950 3725 888 3313 
L 325 3413 
Q 428 3978 793 4289 
Q 1159 4600 1703 4600 
Q 2078 4600 2393 4439 
Q 2709 4278 2876 4000 
Q 3044 3722 3044 3409 
Q 3044 3113 2884 2869 
Q 2725 2625 2413 2481 
Q 2819 2388 3044 2092 
Q 3269 1797 3269 1353 
Q 3269 753 2831 336 
Q 2394 -81 1725 -81 
Q 1122 -81 723 278 
Q 325 638 269 1209 
z
" transform="scale(0.015625)"/>
       <path id="ArialMT-2d" d="M 203 1375 
L 203 1941 
L 1931 1941 
L 1931 1375 
L 203 1375 
z
" transform="scale(0.015625)"/>
       <path id="ArialMT-73" d="M 197 991 
L 753 1078 
Q 800 744 1014 566 
Q 1228 388 1613 388 
Q 2000 388 2187 545 
Q 2375 703 2375 916 
Q 2375 1106 2209 1216 
Q 2094 1291 1634 1406 
Q 1016 1563 777 1677 
Q 538 1791 414 1992 
Q 291 2194 291 2438 
Q 291 2659 392 2848 
Q 494 3038 669 3163 
Q 800 3259 1026 3326 
Q 1253 3394 1513 3394 
Q 1903 3394 2198 3281 
Q 2494 3169 2634 2976 
Q 2775 2784 2828 2463 
L 2278 2388 
Q 2241 2644 2061 2787 
Q 1881 2931 1553 2931 
Q 1166 2931 1000 2803 
Q 834 2675 834 2503 
Q 834 2394 903 2306 
Q 972 2216 1119 2156 
Q 1203 2125 1616 2013 
Q 2213 1853 2448 1751 
Q 2684 1650 2818 1456 
Q 2953 1263 2953 975 
Q 2953 694 2789 445 
Q 2625 197 2315 61 
Q 2006 -75 1616 -75 
Q 969 -75 630 194 
Q 291 463 197 991 
z
" transform="scale(0.015625)"/>
       <path id="ArialMT-70" d="M 422 -1272 
L 422 3319 
L 934 3319 
L 934 2888 
Q 1116 3141 1344 3267 
Q 1572 3394 1897 3394 
Q 2322 3394 2647 3175 
Q 2972 2956 3137 2557 
Q 3303 2159 3303 1684 
Q 3303 1175 3120 767 
Q 2938 359 2589 142 
Q 2241 -75 1856 -75 
Q 1575 -75 1351 44 
Q 1128 163 984 344 
L 984 -1272 
L 422 -1272 
z
M 931 1641 
Q 931 1000 1190 694 
Q 1450 388 1819 388 
Q 2194 388 2461 705 
Q 2728 1022 2728 1688 
Q 2728 2322 2467 2637 
Q 2206 2953 1844 2953 
Q 1484 2953 1207 2617 
Q 931 2281 931 1641 
z
" transform="scale(0.015625)"/>
       <path id="ArialMT-66" d="M 556 0 
L 556 2881 
L 59 2881 
L 59 3319 
L 556 3319 
L 556 3672 
Q 556 4006 616 4169 
Q 697 4388 901 4523 
Q 1106 4659 1475 4659 
Q 1713 4659 2000 4603 
L 1916 4113 
Q 1741 4144 1584 4144 
Q 1328 4144 1222 4034 
Q 1116 3925 1116 3625 
L 1116 3319 
L 1763 3319 
L 1763 2881 
L 1116 2881 
L 1116 0 
L 556 0 
z
" transform="scale(0.015625)"/>
       <path id="ArialMT-67" d="M 319 -275 
L 866 -356 
Q 900 -609 1056 -725 
Q 1266 -881 1628 -881 
Q 2019 -881 2231 -725 
Q 2444 -569 2519 -288 
Q 2563 -116 2559 434 
Q 2191 0 1641 0 
Q 956 0 581 494 
Q 206 988 206 1678 
Q 206 2153 378 2554 
Q 550 2956 876 3175 
Q 1203 3394 1644 3394 
Q 2231 3394 2613 2919 
L 2613 3319 
L 3131 3319 
L 3131 450 
Q 3131 -325 2973 -648 
Q 2816 -972 2473 -1159 
Q 2131 -1347 1631 -1347 
Q 1038 -1347 672 -1080 
Q 306 -813 319 -275 
z
M 784 1719 
Q 784 1066 1043 766 
Q 1303 466 1694 466 
Q 2081 466 2343 764 
Q 2606 1063 2606 1700 
Q 2606 2309 2336 2618 
Q 2066 2928 1684 2928 
Q 1309 2928 1046 2623 
Q 784 2319 784 1719 
z
" transform="scale(0.015625)"/>
      </defs>
      <use xlink:href="#ArialMT-53"/>
      <use xlink:href="#ArialMT-63" x="66.699219"/>
      <use xlink:href="#ArialMT-65" x="116.699219"/>
      <use xlink:href="#ArialMT-6e" x="172.314453"/>
      <use xlink:href="#ArialMT-2e" x="227.929688"/>
      <use xlink:href="#ArialMT-20" x="255.712891"/>
      <use xlink:href="#ArialMT-33" x="283.496094"/>
      <use xlink:href="#ArialMT-20" x="339.111328"/>
      <use xlink:href="#ArialMT-2d" x="366.894531"/>
      <use xlink:href="#ArialMT-20" x="400.195312"/>
      <use xlink:href="#ArialMT-73" x="427.978516"/>
      <use xlink:href="#ArialMT-70" x="477.978516"/>
      <use xlink:href="#ArialMT-65" x="533.59375"/>
      <use xlink:href="#ArialMT-63" x="589.208984"/>
      <use xlink:href="#ArialMT-69" x="639.208984"/>
      <use xlink:href="#ArialMT-66" x="661.425781"/>
      <use xlink:href="#ArialMT-69" x="689.208984"/>
      <use xlink:href="#ArialMT-63" x="711.425781"/>
      <use xlink:href="#ArialMT-20" x="761.425781"/>
      <use xlink:href="#ArialMT-6c" x="789.208984"/>
      <use xlink:href="#ArialMT-65" x="811.425781"/>
      <use xlink:href="#ArialMT-61" x="867.041016"/>
      <use xlink:href="#ArialMT-72" x="922.65625"/>
      <use xlink:href="#ArialMT-6e" x="955.957031"/>
      <use xlink:href="#ArialMT-69" x="1011.572266"/>
      <use xlink:href="#ArialMT-6e" x="1033.789062"/>
      <use xlink:href="#ArialMT-67" x="1089.404297"/>
     </g>
     <!-- (omitting error bar) -->
     <g transform="translate(107.471875 39.233326) scale(0.11 -0.11)">
      <defs>
       <path id="ArialMT-62" d="M 941 0 
L 419 0 
L 419 4581 
L 981 4581 
L 981 2947 
Q 1338 3394 1891 3394 
Q 2197 3394 2470 3270 
Q 2744 3147 2920 2923 
Q 3097 2700 3197 2384 
Q 3297 2069 3297 1709 
Q 3297 856 2875 390 
Q 2453 -75 1863 -75 
Q 1275 -75 941 416 
L 941 0 
z
M 934 1684 
Q 934 1088 1097 822 
Q 1363 388 1816 388 
Q 2184 388 2453 708 
Q 2722 1028 2722 1663 
Q 2722 2313 2464 2622 
Q 2206 2931 1841 2931 
Q 1472 2931 1203 2611 
Q 934 2291 934 1684 
z
" transform="scale(0.015625)"/>
      </defs>
      <use xlink:href="#ArialMT-28"/>
      <use xlink:href="#ArialMT-6f" x="33.300781"/>
      <use xlink:href="#ArialMT-6d" x="88.916016"/>
      <use xlink:href="#ArialMT-69" x="172.216797"/>
      <use xlink:href="#ArialMT-74" x="194.433594"/>
      <use xlink:href="#ArialMT-74" x="222.216797"/>
      <use xlink:href="#ArialMT-69" x="250"/>
      <use xlink:href="#ArialMT-6e" x="272.216797"/>
      <use xlink:href="#ArialMT-67" x="327.832031"/>
      <use xlink:href="#ArialMT-20" x="383.447266"/>
      <use xlink:href="#ArialMT-65" x="411.230469"/>
      <use xlink:href="#ArialMT-72" x="466.845703"/>
      <use xlink:href="#ArialMT-72" x="500.146484"/>
      <use xlink:href="#ArialMT-6f" x="533.447266"/>
      <use xlink:href="#ArialMT-72" x="589.0625"/>
      <use xlink:href="#ArialMT-20" x="622.363281"/>
      <use xlink:href="#ArialMT-62" x="650.146484"/>
      <use xlink:href="#ArialMT-61" x="705.761719"/>
      <use xlink:href="#ArialMT-72" x="761.376953"/>
      <use xlink:href="#ArialMT-29" x="794.677734"/>
     </g>
    </g>
    <g id="patch_32">
     <path d="M 76.671875 61.896935 
L 98.671875 61.896935 
L 98.671875 54.196935 
L 76.671875 54.196935 
z
" style="fill: #b3c9d3"/>
    </g>
    <g id="text_12">
     <!-- Scen. 1 - involved -->
     <g transform="translate(107.471875 54.922076) scale(0.11 -0.11)">
      <defs>
       <path id="ArialMT-76" d="M 1344 0 
L 81 3319 
L 675 3319 
L 1388 1331 
Q 1503 1009 1600 663 
Q 1675 925 1809 1294 
L 2547 3319 
L 3125 3319 
L 1869 0 
L 1344 0 
z
" transform="scale(0.015625)"/>
       <path id="ArialMT-64" d="M 2575 0 
L 2575 419 
Q 2259 -75 1647 -75 
Q 1250 -75 917 144 
Q 584 363 401 755 
Q 219 1147 219 1656 
Q 219 2153 384 2558 
Q 550 2963 881 3178 
Q 1213 3394 1622 3394 
Q 1922 3394 2156 3267 
Q 2391 3141 2538 2938 
L 2538 4581 
L 3097 4581 
L 3097 0 
L 2575 0 
z
M 797 1656 
Q 797 1019 1065 703 
Q 1334 388 1700 388 
Q 2069 388 2326 689 
Q 2584 991 2584 1609 
Q 2584 2291 2321 2609 
Q 2059 2928 1675 2928 
Q 1300 2928 1048 2622 
Q 797 2316 797 1656 
z
" transform="scale(0.015625)"/>
      </defs>
      <use xlink:href="#ArialMT-53"/>
      <use xlink:href="#ArialMT-63" x="66.699219"/>
      <use xlink:href="#ArialMT-65" x="116.699219"/>
      <use xlink:href="#ArialMT-6e" x="172.314453"/>
      <use xlink:href="#ArialMT-2e" x="227.929688"/>
      <use xlink:href="#ArialMT-20" x="255.712891"/>
      <use xlink:href="#ArialMT-31" x="283.496094"/>
      <use xlink:href="#ArialMT-20" x="339.111328"/>
      <use xlink:href="#ArialMT-2d" x="366.894531"/>
      <use xlink:href="#ArialMT-20" x="400.195312"/>
      <use xlink:href="#ArialMT-69" x="427.978516"/>
      <use xlink:href="#ArialMT-6e" x="450.195312"/>
      <use xlink:href="#ArialMT-76" x="505.810547"/>
      <use xlink:href="#ArialMT-6f" x="555.810547"/>
      <use xlink:href="#ArialMT-6c" x="611.425781"/>
      <use xlink:href="#ArialMT-76" x="633.642578"/>
      <use xlink:href="#ArialMT-65" x="683.642578"/>
      <use xlink:href="#ArialMT-64" x="739.257812"/>
     </g>
     <!-- in joint learning -->
     <g transform="translate(107.471875 66.556638) scale(0.11 -0.11)">
      <defs>
       <path id="ArialMT-6a" d="M 419 3928 
L 419 4581 
L 981 4581 
L 981 3928 
L 419 3928 
z
M -294 -1288 
L -188 -809 
Q -19 -853 78 -853 
Q 250 -853 334 -739 
Q 419 -625 419 -169 
L 419 3319 
L 981 3319 
L 981 -181 
Q 981 -794 822 -1034 
Q 619 -1347 147 -1347 
Q -81 -1347 -294 -1288 
z
" transform="scale(0.015625)"/>
      </defs>
      <use xlink:href="#ArialMT-69"/>
      <use xlink:href="#ArialMT-6e" x="22.216797"/>
      <use xlink:href="#ArialMT-20" x="77.832031"/>
      <use xlink:href="#ArialMT-6a" x="105.615234"/>
      <use xlink:href="#ArialMT-6f" x="127.832031"/>
      <use xlink:href="#ArialMT-69" x="183.447266"/>
      <use xlink:href="#ArialMT-6e" x="205.664062"/>
      <use xlink:href="#ArialMT-74" x="261.279297"/>
      <use xlink:href="#ArialMT-20" x="289.0625"/>
      <use xlink:href="#ArialMT-6c" x="316.845703"/>
      <use xlink:href="#ArialMT-65" x="339.0625"/>
      <use xlink:href="#ArialMT-61" x="394.677734"/>
      <use xlink:href="#ArialMT-72" x="450.292969"/>
      <use xlink:href="#ArialMT-6e" x="483.59375"/>
      <use xlink:href="#ArialMT-69" x="539.208984"/>
      <use xlink:href="#ArialMT-6e" x="561.425781"/>
      <use xlink:href="#ArialMT-67" x="617.041016"/>
     </g>
    </g>
    <g id="patch_33">
     <path d="M 76.671875 89.220248 
L 98.671875 89.220248 
L 98.671875 81.520248 
L 76.671875 81.520248 
z
" style="fill: #f1cba2"/>
    </g>
    <g id="text_13">
     <!-- Scen. 2 - involved -->
     <g transform="translate(107.471875 82.245388) scale(0.11 -0.11)">
      <use xlink:href="#ArialMT-53"/>
      <use xlink:href="#ArialMT-63" x="66.699219"/>
      <use xlink:href="#ArialMT-65" x="116.699219"/>
      <use xlink:href="#ArialMT-6e" x="172.314453"/>
      <use xlink:href="#ArialMT-2e" x="227.929688"/>
      <use xlink:href="#ArialMT-20" x="255.712891"/>
      <use xlink:href="#ArialMT-32" x="283.496094"/>
      <use xlink:href="#ArialMT-20" x="339.111328"/>
      <use xlink:href="#ArialMT-2d" x="366.894531"/>
      <use xlink:href="#ArialMT-20" x="400.195312"/>
      <use xlink:href="#ArialMT-69" x="427.978516"/>
      <use xlink:href="#ArialMT-6e" x="450.195312"/>
      <use xlink:href="#ArialMT-76" x="505.810547"/>
      <use xlink:href="#ArialMT-6f" x="555.810547"/>
      <use xlink:href="#ArialMT-6c" x="611.425781"/>
      <use xlink:href="#ArialMT-76" x="633.642578"/>
      <use xlink:href="#ArialMT-65" x="683.642578"/>
      <use xlink:href="#ArialMT-64" x="739.257812"/>
     </g>
     <!-- in joint learning -->
     <g transform="translate(107.471875 93.879951) scale(0.11 -0.11)">
      <use xlink:href="#ArialMT-69"/>
      <use xlink:href="#ArialMT-6e" x="22.216797"/>
      <use xlink:href="#ArialMT-20" x="77.832031"/>
      <use xlink:href="#ArialMT-6a" x="105.615234"/>
      <use xlink:href="#ArialMT-6f" x="127.832031"/>
      <use xlink:href="#ArialMT-69" x="183.447266"/>
      <use xlink:href="#ArialMT-6e" x="205.664062"/>
      <use xlink:href="#ArialMT-74" x="261.279297"/>
      <use xlink:href="#ArialMT-20" x="289.0625"/>
      <use xlink:href="#ArialMT-6c" x="316.845703"/>
      <use xlink:href="#ArialMT-65" x="339.0625"/>
      <use xlink:href="#ArialMT-61" x="394.677734"/>
      <use xlink:href="#ArialMT-72" x="450.292969"/>
      <use xlink:href="#ArialMT-6e" x="483.59375"/>
      <use xlink:href="#ArialMT-69" x="539.208984"/>
      <use xlink:href="#ArialMT-6e" x="561.425781"/>
      <use xlink:href="#ArialMT-67" x="617.041016"/>
     </g>
    </g>
    <g id="patch_34">
     <path d="M 76.671875 116.54356 
L 98.671875 116.54356 
L 98.671875 108.84356 
L 76.671875 108.84356 
z
" style="fill: #c3dfc4"/>
    </g>
    <g id="text_14">
     <!-- Scen. 3 - excluded -->
     <g transform="translate(107.471875 109.568701) scale(0.11 -0.11)">
      <defs>
       <path id="ArialMT-78" d="M 47 0 
L 1259 1725 
L 138 3319 
L 841 3319 
L 1350 2541 
Q 1494 2319 1581 2169 
Q 1719 2375 1834 2534 
L 2394 3319 
L 3066 3319 
L 1919 1756 
L 3153 0 
L 2463 0 
L 1781 1031 
L 1600 1309 
L 728 0 
L 47 0 
z
" transform="scale(0.015625)"/>
       <path id="ArialMT-75" d="M 2597 0 
L 2597 488 
Q 2209 -75 1544 -75 
Q 1250 -75 995 37 
Q 741 150 617 320 
Q 494 491 444 738 
Q 409 903 409 1263 
L 409 3319 
L 972 3319 
L 972 1478 
Q 972 1038 1006 884 
Q 1059 663 1231 536 
Q 1403 409 1656 409 
Q 1909 409 2131 539 
Q 2353 669 2445 892 
Q 2538 1116 2538 1541 
L 2538 3319 
L 3100 3319 
L 3100 0 
L 2597 0 
z
" transform="scale(0.015625)"/>
      </defs>
      <use xlink:href="#ArialMT-53"/>
      <use xlink:href="#ArialMT-63" x="66.699219"/>
      <use xlink:href="#ArialMT-65" x="116.699219"/>
      <use xlink:href="#ArialMT-6e" x="172.314453"/>
      <use xlink:href="#ArialMT-2e" x="227.929688"/>
      <use xlink:href="#ArialMT-20" x="255.712891"/>
      <use xlink:href="#ArialMT-33" x="283.496094"/>
      <use xlink:href="#ArialMT-20" x="339.111328"/>
      <use xlink:href="#ArialMT-2d" x="366.894531"/>
      <use xlink:href="#ArialMT-20" x="400.195312"/>
      <use xlink:href="#ArialMT-65" x="427.978516"/>
      <use xlink:href="#ArialMT-78" x="483.59375"/>
      <use xlink:href="#ArialMT-63" x="533.59375"/>
      <use xlink:href="#ArialMT-6c" x="583.59375"/>
      <use xlink:href="#ArialMT-75" x="605.810547"/>
      <use xlink:href="#ArialMT-64" x="661.425781"/>
      <use xlink:href="#ArialMT-65" x="717.041016"/>
      <use xlink:href="#ArialMT-64" x="772.65625"/>
     </g>
     <!-- in joint learning -->
     <g transform="translate(107.471875 121.203263) scale(0.11 -0.11)">
      <use xlink:href="#ArialMT-69"/>
      <use xlink:href="#ArialMT-6e" x="22.216797"/>
      <use xlink:href="#ArialMT-20" x="77.832031"/>
      <use xlink:href="#ArialMT-6a" x="105.615234"/>
      <use xlink:href="#ArialMT-6f" x="127.832031"/>
      <use xlink:href="#ArialMT-69" x="183.447266"/>
      <use xlink:href="#ArialMT-6e" x="205.664062"/>
      <use xlink:href="#ArialMT-74" x="261.279297"/>
      <use xlink:href="#ArialMT-20" x="289.0625"/>
      <use xlink:href="#ArialMT-6c" x="316.845703"/>
      <use xlink:href="#ArialMT-65" x="339.0625"/>
      <use xlink:href="#ArialMT-61" x="394.677734"/>
      <use xlink:href="#ArialMT-72" x="450.292969"/>
      <use xlink:href="#ArialMT-6e" x="483.59375"/>
      <use xlink:href="#ArialMT-69" x="539.208984"/>
      <use xlink:href="#ArialMT-6e" x="561.425781"/>
      <use xlink:href="#ArialMT-67" x="617.041016"/>
     </g>
    </g>
    <g id="patch_35">
     <path d="M 76.671875 143.866873 
L 98.671875 143.866873 
L 98.671875 136.166873 
L 76.671875 136.166873 
z
" style="fill: #f4b9b9"/>
    </g>
    <g id="text_15">
     <!-- Scen. 4 - involved -->
     <g transform="translate(107.471875 136.892013) scale(0.11 -0.11)">
      <defs>
       <path id="ArialMT-34" d="M 2069 0 
L 2069 1097 
L 81 1097 
L 81 1613 
L 2172 4581 
L 2631 4581 
L 2631 1613 
L 3250 1613 
L 3250 1097 
L 2631 1097 
L 2631 0 
L 2069 0 
z
M 2069 1613 
L 2069 3678 
L 634 1613 
L 2069 1613 
z
" transform="scale(0.015625)"/>
      </defs>
      <use xlink:href="#ArialMT-53"/>
      <use xlink:href="#ArialMT-63" x="66.699219"/>
      <use xlink:href="#ArialMT-65" x="116.699219"/>
      <use xlink:href="#ArialMT-6e" x="172.314453"/>
      <use xlink:href="#ArialMT-2e" x="227.929688"/>
      <use xlink:href="#ArialMT-20" x="255.712891"/>
      <use xlink:href="#ArialMT-34" x="283.496094"/>
      <use xlink:href="#ArialMT-20" x="339.111328"/>
      <use xlink:href="#ArialMT-2d" x="366.894531"/>
      <use xlink:href="#ArialMT-20" x="400.195312"/>
      <use xlink:href="#ArialMT-69" x="427.978516"/>
      <use xlink:href="#ArialMT-6e" x="450.195312"/>
      <use xlink:href="#ArialMT-76" x="505.810547"/>
      <use xlink:href="#ArialMT-6f" x="555.810547"/>
      <use xlink:href="#ArialMT-6c" x="611.425781"/>
      <use xlink:href="#ArialMT-76" x="633.642578"/>
      <use xlink:href="#ArialMT-65" x="683.642578"/>
      <use xlink:href="#ArialMT-64" x="739.257812"/>
     </g>
     <!-- in joint learning -->
     <g transform="translate(107.471875 148.526576) scale(0.11 -0.11)">
      <use xlink:href="#ArialMT-69"/>
      <use xlink:href="#ArialMT-6e" x="22.216797"/>
      <use xlink:href="#ArialMT-20" x="77.832031"/>
      <use xlink:href="#ArialMT-6a" x="105.615234"/>
      <use xlink:href="#ArialMT-6f" x="127.832031"/>
      <use xlink:href="#ArialMT-69" x="183.447266"/>
      <use xlink:href="#ArialMT-6e" x="205.664062"/>
      <use xlink:href="#ArialMT-74" x="261.279297"/>
      <use xlink:href="#ArialMT-20" x="289.0625"/>
      <use xlink:href="#ArialMT-6c" x="316.845703"/>
      <use xlink:href="#ArialMT-65" x="339.0625"/>
      <use xlink:href="#ArialMT-61" x="394.677734"/>
      <use xlink:href="#ArialMT-72" x="450.292969"/>
      <use xlink:href="#ArialMT-6e" x="483.59375"/>
      <use xlink:href="#ArialMT-69" x="539.208984"/>
      <use xlink:href="#ArialMT-6e" x="561.425781"/>
      <use xlink:href="#ArialMT-67" x="617.041016"/>
     </g>
    </g>
    <g id="patch_36">
     <path d="M 76.671875 171.190185 
L 98.671875 171.190185 
L 98.671875 163.490185 
L 76.671875 163.490185 
z
" style="fill: #d1c4d9"/>
    </g>
    <g id="text_16">
     <!-- Scen. 5 - involved -->
     <g transform="translate(107.471875 164.215326) scale(0.11 -0.11)">
      <defs>
       <path id="ArialMT-35" d="M 266 1200 
L 856 1250 
Q 922 819 1161 601 
Q 1400 384 1738 384 
Q 2144 384 2425 690 
Q 2706 997 2706 1503 
Q 2706 1984 2436 2262 
Q 2166 2541 1728 2541 
Q 1456 2541 1237 2417 
Q 1019 2294 894 2097 
L 366 2166 
L 809 4519 
L 3088 4519 
L 3088 3981 
L 1259 3981 
L 1013 2750 
Q 1425 3038 1878 3038 
Q 2478 3038 2890 2622 
Q 3303 2206 3303 1553 
Q 3303 931 2941 478 
Q 2500 -78 1738 -78 
Q 1113 -78 717 272 
Q 322 622 266 1200 
z
" transform="scale(0.015625)"/>
      </defs>
      <use xlink:href="#ArialMT-53"/>
      <use xlink:href="#ArialMT-63" x="66.699219"/>
      <use xlink:href="#ArialMT-65" x="116.699219"/>
      <use xlink:href="#ArialMT-6e" x="172.314453"/>
      <use xlink:href="#ArialMT-2e" x="227.929688"/>
      <use xlink:href="#ArialMT-20" x="255.712891"/>
      <use xlink:href="#ArialMT-35" x="283.496094"/>
      <use xlink:href="#ArialMT-20" x="339.111328"/>
      <use xlink:href="#ArialMT-2d" x="366.894531"/>
      <use xlink:href="#ArialMT-20" x="400.195312"/>
      <use xlink:href="#ArialMT-69" x="427.978516"/>
      <use xlink:href="#ArialMT-6e" x="450.195312"/>
      <use xlink:href="#ArialMT-76" x="505.810547"/>
      <use xlink:href="#ArialMT-6f" x="555.810547"/>
      <use xlink:href="#ArialMT-6c" x="611.425781"/>
      <use xlink:href="#ArialMT-76" x="633.642578"/>
      <use xlink:href="#ArialMT-65" x="683.642578"/>
      <use xlink:href="#ArialMT-64" x="739.257812"/>
     </g>
     <!-- in joint learning -->
     <g transform="translate(107.471875 175.849888) scale(0.11 -0.11)">
      <use xlink:href="#ArialMT-69"/>
      <use xlink:href="#ArialMT-6e" x="22.216797"/>
      <use xlink:href="#ArialMT-20" x="77.832031"/>
      <use xlink:href="#ArialMT-6a" x="105.615234"/>
      <use xlink:href="#ArialMT-6f" x="127.832031"/>
      <use xlink:href="#ArialMT-69" x="183.447266"/>
      <use xlink:href="#ArialMT-6e" x="205.664062"/>
      <use xlink:href="#ArialMT-74" x="261.279297"/>
      <use xlink:href="#ArialMT-20" x="289.0625"/>
      <use xlink:href="#ArialMT-6c" x="316.845703"/>
      <use xlink:href="#ArialMT-65" x="339.0625"/>
      <use xlink:href="#ArialMT-61" x="394.677734"/>
      <use xlink:href="#ArialMT-72" x="450.292969"/>
      <use xlink:href="#ArialMT-6e" x="483.59375"/>
      <use xlink:href="#ArialMT-69" x="539.208984"/>
      <use xlink:href="#ArialMT-6e" x="561.425781"/>
      <use xlink:href="#ArialMT-67" x="617.041016"/>
     </g>
    </g>
   </g>
  </g>
 </g>
 <defs>
  <clipPath id="p024d874cbb">
   <rect x="66.771875" y="9.401326" width="480.030803" height="369.146987"/>
  </clipPath>
 </defs>
</svg>
