<?xml version="1.0" encoding="utf-8" standalone="no"?>
<!DOCTYPE svg PUBLIC "-//W3C//DTD SVG 1.1//EN"
  "http://www.w3.org/Graphics/SVG/1.1/DTD/svg11.dtd">
<svg xmlns:xlink="http://www.w3.org/1999/xlink" width="554.002678pt" height="409.241672pt" viewBox="0 0 554.002678 409.241672" xmlns="http://www.w3.org/2000/svg" version="1.1">
 <metadata>
  <rdf:RDF xmlns:dc="http://purl.org/dc/elements/1.1/" xmlns:cc="http://creativecommons.org/ns#" xmlns:rdf="http://www.w3.org/1999/02/22-rdf-syntax-ns#">
   <cc:Work>
    <dc:type rdf:resource="http://purl.org/dc/dcmitype/StillImage"/>
    <dc:date>2025-01-11T16:57:51.571481</dc:date>
    <dc:format>image/svg+xml</dc:format>
    <dc:creator>
     <cc:Agent>
      <dc:title>Matplotlib v3.9.4, https://matplotlib.org/</dc:title>
     </cc:Agent>
    </dc:creator>
   </cc:Work>
  </rdf:RDF>
 </metadata>
 <defs>
  <style type="text/css">*{stroke-linejoin: round; stroke-linecap: butt}</style>
 </defs>
 <g id="figure_1">
  <g id="patch_1">
   <path d="M 0 409.241672 
L 554.002678 409.241672 
L 554.002678 0 
L 0 0 
z
" style="fill: #ffffff"/>
  </g>
  <g id="axes_1">
   <g id="patch_2">
    <path d="M 66.771875 380.214172 
L 546.802678 380.214172 
L 546.802678 7.2 
L 66.771875 7.2 
z
" style="fill: #ffffff"/>
   </g>
   <g id="patch_3">
    <path d="M 88.591457 161316.766441 
L 114.822648 161316.766441 
L 114.822648 97.53318 
L 88.591457 97.53318 
z
" clip-path="url(#p02d1238e16)" style="fill: #8fa2cd"/>
   </g>
   <g id="patch_4">
    <path d="M 207.824145 161316.766441 
L 234.055337 161316.766441 
L 234.055337 80.689562 
L 207.824145 80.689562 
z
" clip-path="url(#p02d1238e16)" style="fill: #8fa2cd"/>
   </g>
   <g id="patch_5">
    <path d="M 327.056834 161316.766441 
L 353.288025 161316.766441 
L 353.288025 78.752536 
L 327.056834 78.752536 
z
" clip-path="url(#p02d1238e16)" style="fill: #8fa2cd"/>
   </g>
   <g id="patch_6">
    <path d="M 446.289522 161316.766441 
L 472.520713 161316.766441 
L 472.520713 70.078407 
L 446.289522 70.078407 
z
" clip-path="url(#p02d1238e16)" style="fill: #8fa2cd"/>
   </g>
   <g id="patch_7">
    <path d="M 114.822648 161316.766441 
L 141.05384 161316.766441 
L 141.05384 165.768411 
L 114.822648 165.768411 
z
" clip-path="url(#p02d1238e16)" style="fill: #f8bc7e"/>
   </g>
   <g id="patch_8">
    <path d="M 234.055337 161316.766441 
L 260.286528 161316.766441 
L 260.286528 127.341934 
L 234.055337 127.341934 
z
" clip-path="url(#p02d1238e16)" style="fill: #f8bc7e"/>
   </g>
   <g id="patch_9">
    <path d="M 353.288025 161316.766441 
L 379.519216 161316.766441 
L 379.519216 109.032653 
L 353.288025 109.032653 
z
" clip-path="url(#p02d1238e16)" style="fill: #f8bc7e"/>
   </g>
   <g id="patch_10">
    <path d="M 472.520713 161316.766441 
L 498.751905 161316.766441 
L 498.751905 90.790873 
L 472.520713 90.790873 
z
" clip-path="url(#p02d1238e16)" style="fill: #f8bc7e"/>
   </g>
   <g id="patch_11">
    <path d="M 141.05384 161316.766441 
L 167.285031 161316.766441 
L 167.285031 233.344586 
L 141.05384 233.344586 
z
" clip-path="url(#p02d1238e16)" style="fill: #9bbf9e"/>
   </g>
   <g id="patch_12">
    <path d="M 260.286528 161316.766441 
L 286.51772 161316.766441 
L 286.51772 201.66859 
L 260.286528 201.66859 
z
" clip-path="url(#p02d1238e16)" style="fill: #9bbf9e"/>
   </g>
   <g id="patch_13">
    <path d="M 379.519216 161316.766441 
L 405.750408 161316.766441 
L 405.750408 125.848953 
L 379.519216 125.848953 
z
" clip-path="url(#p02d1238e16)" style="fill: #9bbf9e"/>
   </g>
   <g id="patch_14">
    <path d="M 498.751905 161316.766441 
L 524.983096 161316.766441 
L 524.983096 108.083746 
L 498.751905 108.083746 
z
" clip-path="url(#p02d1238e16)" style="fill: #9bbf9e"/>
   </g>
   <g id="matplotlib.axis_1">
    <g id="xtick_1">
     <g id="line2d_1">
      <defs>
       <path id="mc6dbf52a3b" d="M 0 0 
L 0 3.5 
" style="stroke: #000000; stroke-width: 0.8"/>
      </defs>
      <g>
       <use xlink:href="#mc6dbf52a3b" x="127.938244" y="380.214172" style="stroke: #000000; stroke-width: 0.8"/>
      </g>
     </g>
     <g id="text_1">
      <!-- ALLoc -->
      <g transform="translate(105.255744 398.666672) scale(0.16 -0.16)">
       <defs>
        <path id="ArialMT-41" d="M -9 0 
L 1750 4581 
L 2403 4581 
L 4278 0 
L 3588 0 
L 3053 1388 
L 1138 1388 
L 634 0 
L -9 0 
z
M 1313 1881 
L 2866 1881 
L 2388 3150 
Q 2169 3728 2063 4100 
Q 1975 3659 1816 3225 
L 1313 1881 
z
" transform="scale(0.015625)"/>
        <path id="ArialMT-4c" d="M 469 0 
L 469 4581 
L 1075 4581 
L 1075 541 
L 3331 541 
L 3331 0 
L 469 0 
z
" transform="scale(0.015625)"/>
        <path id="ArialMT-6f" d="M 213 1659 
Q 213 2581 725 3025 
Q 1153 3394 1769 3394 
Q 2453 3394 2887 2945 
Q 3322 2497 3322 1706 
Q 3322 1066 3130 698 
Q 2938 331 2570 128 
Q 2203 -75 1769 -75 
Q 1072 -75 642 372 
Q 213 819 213 1659 
z
M 791 1659 
Q 791 1022 1069 705 
Q 1347 388 1769 388 
Q 2188 388 2466 706 
Q 2744 1025 2744 1678 
Q 2744 2294 2464 2611 
Q 2184 2928 1769 2928 
Q 1347 2928 1069 2612 
Q 791 2297 791 1659 
z
" transform="scale(0.015625)"/>
        <path id="ArialMT-63" d="M 2588 1216 
L 3141 1144 
Q 3050 572 2676 248 
Q 2303 -75 1759 -75 
Q 1078 -75 664 370 
Q 250 816 250 1647 
Q 250 2184 428 2587 
Q 606 2991 970 3192 
Q 1334 3394 1763 3394 
Q 2303 3394 2647 3120 
Q 2991 2847 3088 2344 
L 2541 2259 
Q 2463 2594 2264 2762 
Q 2066 2931 1784 2931 
Q 1359 2931 1093 2626 
Q 828 2322 828 1663 
Q 828 994 1084 691 
Q 1341 388 1753 388 
Q 2084 388 2306 591 
Q 2528 794 2588 1216 
z
" transform="scale(0.015625)"/>
       </defs>
       <use xlink:href="#ArialMT-41"/>
       <use xlink:href="#ArialMT-4c" x="66.699219"/>
       <use xlink:href="#ArialMT-4c" x="122.314453"/>
       <use xlink:href="#ArialMT-6f" x="177.929688"/>
       <use xlink:href="#ArialMT-63" x="233.544922"/>
      </g>
     </g>
    </g>
    <g id="xtick_2">
     <g id="line2d_2">
      <g>
       <use xlink:href="#mc6dbf52a3b" x="247.170932" y="380.214172" style="stroke: #000000; stroke-width: 0.8"/>
      </g>
     </g>
     <g id="text_2">
      <!-- MFCNet -->
      <g transform="translate(217.394682 398.666672) scale(0.16 -0.16)">
       <defs>
        <path id="ArialMT-4d" d="M 475 0 
L 475 4581 
L 1388 4581 
L 2472 1338 
Q 2622 884 2691 659 
Q 2769 909 2934 1394 
L 4031 4581 
L 4847 4581 
L 4847 0 
L 4263 0 
L 4263 3834 
L 2931 0 
L 2384 0 
L 1059 3900 
L 1059 0 
L 475 0 
z
" transform="scale(0.015625)"/>
        <path id="ArialMT-46" d="M 525 0 
L 525 4581 
L 3616 4581 
L 3616 4041 
L 1131 4041 
L 1131 2622 
L 3281 2622 
L 3281 2081 
L 1131 2081 
L 1131 0 
L 525 0 
z
" transform="scale(0.015625)"/>
        <path id="ArialMT-43" d="M 3763 1606 
L 4369 1453 
Q 4178 706 3683 314 
Q 3188 -78 2472 -78 
Q 1731 -78 1267 223 
Q 803 525 561 1097 
Q 319 1669 319 2325 
Q 319 3041 592 3573 
Q 866 4106 1370 4382 
Q 1875 4659 2481 4659 
Q 3169 4659 3637 4309 
Q 4106 3959 4291 3325 
L 3694 3184 
Q 3534 3684 3231 3912 
Q 2928 4141 2469 4141 
Q 1941 4141 1586 3887 
Q 1231 3634 1087 3207 
Q 944 2781 944 2328 
Q 944 1744 1114 1308 
Q 1284 872 1643 656 
Q 2003 441 2422 441 
Q 2931 441 3284 734 
Q 3638 1028 3763 1606 
z
" transform="scale(0.015625)"/>
        <path id="ArialMT-4e" d="M 488 0 
L 488 4581 
L 1109 4581 
L 3516 984 
L 3516 4581 
L 4097 4581 
L 4097 0 
L 3475 0 
L 1069 3600 
L 1069 0 
L 488 0 
z
" transform="scale(0.015625)"/>
        <path id="ArialMT-65" d="M 2694 1069 
L 3275 997 
Q 3138 488 2766 206 
Q 2394 -75 1816 -75 
Q 1088 -75 661 373 
Q 234 822 234 1631 
Q 234 2469 665 2931 
Q 1097 3394 1784 3394 
Q 2450 3394 2872 2941 
Q 3294 2488 3294 1666 
Q 3294 1616 3291 1516 
L 816 1516 
Q 847 969 1125 678 
Q 1403 388 1819 388 
Q 2128 388 2347 550 
Q 2566 713 2694 1069 
z
M 847 1978 
L 2700 1978 
Q 2663 2397 2488 2606 
Q 2219 2931 1791 2931 
Q 1403 2931 1139 2672 
Q 875 2413 847 1978 
z
" transform="scale(0.015625)"/>
        <path id="ArialMT-74" d="M 1650 503 
L 1731 6 
Q 1494 -44 1306 -44 
Q 1000 -44 831 53 
Q 663 150 594 308 
Q 525 466 525 972 
L 525 2881 
L 113 2881 
L 113 3319 
L 525 3319 
L 525 4141 
L 1084 4478 
L 1084 3319 
L 1650 3319 
L 1650 2881 
L 1084 2881 
L 1084 941 
Q 1084 700 1114 631 
Q 1144 563 1211 522 
Q 1278 481 1403 481 
Q 1497 481 1650 503 
z
" transform="scale(0.015625)"/>
       </defs>
       <use xlink:href="#ArialMT-4d"/>
       <use xlink:href="#ArialMT-46" x="83.300781"/>
       <use xlink:href="#ArialMT-43" x="144.384766"/>
       <use xlink:href="#ArialMT-4e" x="216.601562"/>
       <use xlink:href="#ArialMT-65" x="288.818359"/>
       <use xlink:href="#ArialMT-74" x="344.433594"/>
      </g>
     </g>
    </g>
    <g id="xtick_3">
     <g id="line2d_3">
      <g>
       <use xlink:href="#mc6dbf52a3b" x="366.403621" y="380.214172" style="stroke: #000000; stroke-width: 0.8"/>
      </g>
     </g>
     <g id="text_3">
      <!-- AD_CNN -->
      <g transform="translate(333.508621 398.861672) scale(0.16 -0.16)">
       <defs>
        <path id="ArialMT-44" d="M 494 0 
L 494 4581 
L 2072 4581 
Q 2606 4581 2888 4516 
Q 3281 4425 3559 4188 
Q 3922 3881 4101 3404 
Q 4281 2928 4281 2316 
Q 4281 1794 4159 1391 
Q 4038 988 3847 723 
Q 3656 459 3429 307 
Q 3203 156 2883 78 
Q 2563 0 2147 0 
L 494 0 
z
M 1100 541 
L 2078 541 
Q 2531 541 2789 625 
Q 3047 709 3200 863 
Q 3416 1078 3536 1442 
Q 3656 1806 3656 2325 
Q 3656 3044 3420 3430 
Q 3184 3816 2847 3947 
Q 2603 4041 2063 4041 
L 1100 4041 
L 1100 541 
z
" transform="scale(0.015625)"/>
        <path id="ArialMT-5f" d="M -97 -1272 
L -97 -866 
L 3631 -866 
L 3631 -1272 
L -97 -1272 
z
" transform="scale(0.015625)"/>
       </defs>
       <use xlink:href="#ArialMT-41"/>
       <use xlink:href="#ArialMT-44" x="66.699219"/>
       <use xlink:href="#ArialMT-5f" x="138.916016"/>
       <use xlink:href="#ArialMT-43" x="194.53125"/>
       <use xlink:href="#ArialMT-4e" x="266.748047"/>
       <use xlink:href="#ArialMT-4e" x="338.964844"/>
      </g>
     </g>
    </g>
    <g id="xtick_4">
     <g id="line2d_4">
      <g>
       <use xlink:href="#mc6dbf52a3b" x="485.636309" y="380.214172" style="stroke: #000000; stroke-width: 0.8"/>
      </g>
     </g>
     <g id="text_4">
      <!-- CNN -->
      <g transform="translate(468.303809 398.666672) scale(0.16 -0.16)">
       <use xlink:href="#ArialMT-43"/>
       <use xlink:href="#ArialMT-4e" x="72.216797"/>
       <use xlink:href="#ArialMT-4e" x="144.433594"/>
      </g>
     </g>
    </g>
   </g>
   <g id="matplotlib.axis_2">
    <g id="ytick_1">
     <g id="line2d_5">
      <path d="M 66.771875 340.24684 
L 546.802678 340.24684 
" clip-path="url(#p02d1238e16)" style="fill: none; stroke-dasharray: 2.96,1.28; stroke-dashoffset: 0; stroke: #b0b0b0; stroke-opacity: 0.6; stroke-width: 0.8"/>
     </g>
     <g id="line2d_6">
      <defs>
       <path id="md9f714e83e" d="M 0 0 
L -3.5 0 
" style="stroke: #000000; stroke-width: 0.8"/>
      </defs>
      <g>
       <use xlink:href="#md9f714e83e" x="66.771875" y="340.24684" style="stroke: #000000; stroke-width: 0.8"/>
      </g>
     </g>
     <g id="text_5">
      <!-- $\mathdefault{10^{-2}}$ -->
      <g transform="translate(28.091875 348.49684) scale(0.16 -0.16)">
       <defs>
        <path id="ArialMT-31" d="M 2384 0 
L 1822 0 
L 1822 3584 
Q 1619 3391 1289 3197 
Q 959 3003 697 2906 
L 697 3450 
Q 1169 3672 1522 3987 
Q 1875 4303 2022 4600 
L 2384 4600 
L 2384 0 
z
" transform="scale(0.015625)"/>
        <path id="ArialMT-30" d="M 266 2259 
Q 266 3072 433 3567 
Q 600 4063 929 4331 
Q 1259 4600 1759 4600 
Q 2128 4600 2406 4451 
Q 2684 4303 2865 4023 
Q 3047 3744 3150 3342 
Q 3253 2941 3253 2259 
Q 3253 1453 3087 958 
Q 2922 463 2592 192 
Q 2263 -78 1759 -78 
Q 1097 -78 719 397 
Q 266 969 266 2259 
z
M 844 2259 
Q 844 1131 1108 757 
Q 1372 384 1759 384 
Q 2147 384 2411 759 
Q 2675 1134 2675 2259 
Q 2675 3391 2411 3762 
Q 2147 4134 1753 4134 
Q 1366 4134 1134 3806 
Q 844 3388 844 2259 
z
" transform="scale(0.015625)"/>
        <path id="ArialMT-2212" d="M 3381 1997 
L 356 1997 
L 356 2522 
L 3381 2522 
L 3381 1997 
z
" transform="scale(0.015625)"/>
        <path id="ArialMT-32" d="M 3222 541 
L 3222 0 
L 194 0 
Q 188 203 259 391 
Q 375 700 629 1000 
Q 884 1300 1366 1694 
Q 2113 2306 2375 2664 
Q 2638 3022 2638 3341 
Q 2638 3675 2398 3904 
Q 2159 4134 1775 4134 
Q 1369 4134 1125 3890 
Q 881 3647 878 3216 
L 300 3275 
Q 359 3922 746 4261 
Q 1134 4600 1788 4600 
Q 2447 4600 2831 4234 
Q 3216 3869 3216 3328 
Q 3216 3053 3103 2787 
Q 2991 2522 2730 2228 
Q 2469 1934 1863 1422 
Q 1356 997 1212 845 
Q 1069 694 975 541 
L 3222 541 
z
" transform="scale(0.015625)"/>
       </defs>
       <use xlink:href="#ArialMT-31" transform="translate(0 0.99375)"/>
       <use xlink:href="#ArialMT-30" transform="translate(55.615234 0.99375)"/>
       <use xlink:href="#ArialMT-2212" transform="translate(112.972813 70.6875) scale(0.7)"/>
       <use xlink:href="#ArialMT-32" transform="translate(153.851719 70.6875) scale(0.7)"/>
      </g>
     </g>
    </g>
    <g id="ytick_2">
     <g id="line2d_7">
      <path d="M 66.771875 178.947722 
L 546.802678 178.947722 
" clip-path="url(#p02d1238e16)" style="fill: none; stroke-dasharray: 2.96,1.28; stroke-dashoffset: 0; stroke: #b0b0b0; stroke-opacity: 0.6; stroke-width: 0.8"/>
     </g>
     <g id="line2d_8">
      <g>
       <use xlink:href="#md9f714e83e" x="66.771875" y="178.947722" style="stroke: #000000; stroke-width: 0.8"/>
      </g>
     </g>
     <g id="text_6">
      <!-- $\mathdefault{10^{-1}}$ -->
      <g transform="translate(28.091875 187.197722) scale(0.16 -0.16)">
       <use xlink:href="#ArialMT-31" transform="translate(0 0.99375)"/>
       <use xlink:href="#ArialMT-30" transform="translate(55.615234 0.99375)"/>
       <use xlink:href="#ArialMT-2212" transform="translate(112.972813 70.6875) scale(0.7)"/>
       <use xlink:href="#ArialMT-31" transform="translate(153.851719 70.6875) scale(0.7)"/>
      </g>
     </g>
    </g>
    <g id="ytick_3">
     <g id="line2d_9">
      <path d="M 66.771875 17.648604 
L 546.802678 17.648604 
" clip-path="url(#p02d1238e16)" style="fill: none; stroke-dasharray: 2.96,1.28; stroke-dashoffset: 0; stroke: #b0b0b0; stroke-opacity: 0.6; stroke-width: 0.8"/>
     </g>
     <g id="line2d_10">
      <g>
       <use xlink:href="#md9f714e83e" x="66.771875" y="17.648604" style="stroke: #000000; stroke-width: 0.8"/>
      </g>
     </g>
     <g id="text_7">
      <!-- $\mathdefault{10^{0}}$ -->
      <g transform="translate(34.651875 25.898604) scale(0.16 -0.16)">
       <use xlink:href="#ArialMT-31" transform="translate(0 0.99375)"/>
       <use xlink:href="#ArialMT-30" transform="translate(55.615234 0.99375)"/>
       <use xlink:href="#ArialMT-30" transform="translate(112.972813 70.6875) scale(0.7)"/>
      </g>
     </g>
    </g>
    <g id="ytick_4">
     <g id="line2d_11">
      <defs>
       <path id="mbc72b5c689" d="M 0 0 
L -2 0 
" style="stroke: #000000; stroke-width: 0.6"/>
      </defs>
      <g>
       <use xlink:href="#mbc72b5c689" x="66.771875" y="376.030848" style="stroke: #000000; stroke-width: 0.6"/>
      </g>
     </g>
    </g>
    <g id="ytick_5">
     <g id="line2d_12">
      <g>
       <use xlink:href="#mbc72b5c689" x="66.771875" y="365.232389" style="stroke: #000000; stroke-width: 0.6"/>
      </g>
     </g>
    </g>
    <g id="ytick_6">
     <g id="line2d_13">
      <g>
       <use xlink:href="#mbc72b5c689" x="66.771875" y="355.87834" style="stroke: #000000; stroke-width: 0.6"/>
      </g>
     </g>
    </g>
    <g id="ytick_7">
     <g id="line2d_14">
      <g>
       <use xlink:href="#mbc72b5c689" x="66.771875" y="347.627483" style="stroke: #000000; stroke-width: 0.6"/>
      </g>
     </g>
    </g>
    <g id="ytick_8">
     <g id="line2d_15">
      <g>
       <use xlink:href="#mbc72b5c689" x="66.771875" y="291.690967" style="stroke: #000000; stroke-width: 0.6"/>
      </g>
     </g>
    </g>
    <g id="ytick_9">
     <g id="line2d_16">
      <g>
       <use xlink:href="#mbc72b5c689" x="66.771875" y="263.287602" style="stroke: #000000; stroke-width: 0.6"/>
      </g>
     </g>
    </g>
    <g id="ytick_10">
     <g id="line2d_17">
      <g>
       <use xlink:href="#mbc72b5c689" x="66.771875" y="243.135094" style="stroke: #000000; stroke-width: 0.6"/>
      </g>
     </g>
    </g>
    <g id="ytick_11">
     <g id="line2d_18">
      <g>
       <use xlink:href="#mbc72b5c689" x="66.771875" y="227.503595" style="stroke: #000000; stroke-width: 0.6"/>
      </g>
     </g>
    </g>
    <g id="ytick_12">
     <g id="line2d_19">
      <g>
       <use xlink:href="#mbc72b5c689" x="66.771875" y="214.73173" style="stroke: #000000; stroke-width: 0.6"/>
      </g>
     </g>
    </g>
    <g id="ytick_13">
     <g id="line2d_20">
      <g>
       <use xlink:href="#mbc72b5c689" x="66.771875" y="203.933272" style="stroke: #000000; stroke-width: 0.6"/>
      </g>
     </g>
    </g>
    <g id="ytick_14">
     <g id="line2d_21">
      <g>
       <use xlink:href="#mbc72b5c689" x="66.771875" y="194.579222" style="stroke: #000000; stroke-width: 0.6"/>
      </g>
     </g>
    </g>
    <g id="ytick_15">
     <g id="line2d_22">
      <g>
       <use xlink:href="#mbc72b5c689" x="66.771875" y="186.328365" style="stroke: #000000; stroke-width: 0.6"/>
      </g>
     </g>
    </g>
    <g id="ytick_16">
     <g id="line2d_23">
      <g>
       <use xlink:href="#mbc72b5c689" x="66.771875" y="130.391849" style="stroke: #000000; stroke-width: 0.6"/>
      </g>
     </g>
    </g>
    <g id="ytick_17">
     <g id="line2d_24">
      <g>
       <use xlink:href="#mbc72b5c689" x="66.771875" y="101.988485" style="stroke: #000000; stroke-width: 0.6"/>
      </g>
     </g>
    </g>
    <g id="ytick_18">
     <g id="line2d_25">
      <g>
       <use xlink:href="#mbc72b5c689" x="66.771875" y="81.835977" style="stroke: #000000; stroke-width: 0.6"/>
      </g>
     </g>
    </g>
    <g id="ytick_19">
     <g id="line2d_26">
      <g>
       <use xlink:href="#mbc72b5c689" x="66.771875" y="66.204477" style="stroke: #000000; stroke-width: 0.6"/>
      </g>
     </g>
    </g>
    <g id="ytick_20">
     <g id="line2d_27">
      <g>
       <use xlink:href="#mbc72b5c689" x="66.771875" y="53.432612" style="stroke: #000000; stroke-width: 0.6"/>
      </g>
     </g>
    </g>
    <g id="ytick_21">
     <g id="line2d_28">
      <g>
       <use xlink:href="#mbc72b5c689" x="66.771875" y="42.634154" style="stroke: #000000; stroke-width: 0.6"/>
      </g>
     </g>
    </g>
    <g id="ytick_22">
     <g id="line2d_29">
      <g>
       <use xlink:href="#mbc72b5c689" x="66.771875" y="33.280104" style="stroke: #000000; stroke-width: 0.6"/>
      </g>
     </g>
    </g>
    <g id="ytick_23">
     <g id="line2d_30">
      <g>
       <use xlink:href="#mbc72b5c689" x="66.771875" y="25.029247" style="stroke: #000000; stroke-width: 0.6"/>
      </g>
     </g>
    </g>
    <g id="text_8">
     <!-- Localization Error (m) -->
     <g transform="translate(20.303437 279.724586) rotate(-90) scale(0.18 -0.18)">
      <defs>
       <path id="ArialMT-61" d="M 2588 409 
Q 2275 144 1986 34 
Q 1697 -75 1366 -75 
Q 819 -75 525 192 
Q 231 459 231 875 
Q 231 1119 342 1320 
Q 453 1522 633 1644 
Q 813 1766 1038 1828 
Q 1203 1872 1538 1913 
Q 2219 1994 2541 2106 
Q 2544 2222 2544 2253 
Q 2544 2597 2384 2738 
Q 2169 2928 1744 2928 
Q 1347 2928 1158 2789 
Q 969 2650 878 2297 
L 328 2372 
Q 403 2725 575 2942 
Q 747 3159 1072 3276 
Q 1397 3394 1825 3394 
Q 2250 3394 2515 3294 
Q 2781 3194 2906 3042 
Q 3031 2891 3081 2659 
Q 3109 2516 3109 2141 
L 3109 1391 
Q 3109 606 3145 398 
Q 3181 191 3288 0 
L 2700 0 
Q 2613 175 2588 409 
z
M 2541 1666 
Q 2234 1541 1622 1453 
Q 1275 1403 1131 1340 
Q 988 1278 909 1158 
Q 831 1038 831 891 
Q 831 666 1001 516 
Q 1172 366 1500 366 
Q 1825 366 2078 508 
Q 2331 650 2450 897 
Q 2541 1088 2541 1459 
L 2541 1666 
z
" transform="scale(0.015625)"/>
       <path id="ArialMT-6c" d="M 409 0 
L 409 4581 
L 972 4581 
L 972 0 
L 409 0 
z
" transform="scale(0.015625)"/>
       <path id="ArialMT-69" d="M 425 3934 
L 425 4581 
L 988 4581 
L 988 3934 
L 425 3934 
z
M 425 0 
L 425 3319 
L 988 3319 
L 988 0 
L 425 0 
z
" transform="scale(0.015625)"/>
       <path id="ArialMT-7a" d="M 125 0 
L 125 456 
L 2238 2881 
Q 1878 2863 1603 2863 
L 250 2863 
L 250 3319 
L 2963 3319 
L 2963 2947 
L 1166 841 
L 819 456 
Q 1197 484 1528 484 
L 3063 484 
L 3063 0 
L 125 0 
z
" transform="scale(0.015625)"/>
       <path id="ArialMT-6e" d="M 422 0 
L 422 3319 
L 928 3319 
L 928 2847 
Q 1294 3394 1984 3394 
Q 2284 3394 2536 3286 
Q 2788 3178 2913 3003 
Q 3038 2828 3088 2588 
Q 3119 2431 3119 2041 
L 3119 0 
L 2556 0 
L 2556 2019 
Q 2556 2363 2490 2533 
Q 2425 2703 2258 2804 
Q 2091 2906 1866 2906 
Q 1506 2906 1245 2678 
Q 984 2450 984 1813 
L 984 0 
L 422 0 
z
" transform="scale(0.015625)"/>
       <path id="ArialMT-20" transform="scale(0.015625)"/>
       <path id="ArialMT-45" d="M 506 0 
L 506 4581 
L 3819 4581 
L 3819 4041 
L 1113 4041 
L 1113 2638 
L 3647 2638 
L 3647 2100 
L 1113 2100 
L 1113 541 
L 3925 541 
L 3925 0 
L 506 0 
z
" transform="scale(0.015625)"/>
       <path id="ArialMT-72" d="M 416 0 
L 416 3319 
L 922 3319 
L 922 2816 
Q 1116 3169 1280 3281 
Q 1444 3394 1641 3394 
Q 1925 3394 2219 3213 
L 2025 2691 
Q 1819 2813 1613 2813 
Q 1428 2813 1281 2702 
Q 1134 2591 1072 2394 
Q 978 2094 978 1738 
L 978 0 
L 416 0 
z
" transform="scale(0.015625)"/>
       <path id="ArialMT-28" d="M 1497 -1347 
Q 1031 -759 709 28 
Q 388 816 388 1659 
Q 388 2403 628 3084 
Q 909 3875 1497 4659 
L 1900 4659 
Q 1522 4009 1400 3731 
Q 1209 3300 1100 2831 
Q 966 2247 966 1656 
Q 966 153 1900 -1347 
L 1497 -1347 
z
" transform="scale(0.015625)"/>
       <path id="ArialMT-6d" d="M 422 0 
L 422 3319 
L 925 3319 
L 925 2853 
Q 1081 3097 1340 3245 
Q 1600 3394 1931 3394 
Q 2300 3394 2536 3241 
Q 2772 3088 2869 2813 
Q 3263 3394 3894 3394 
Q 4388 3394 4653 3120 
Q 4919 2847 4919 2278 
L 4919 0 
L 4359 0 
L 4359 2091 
Q 4359 2428 4304 2576 
Q 4250 2725 4106 2815 
Q 3963 2906 3769 2906 
Q 3419 2906 3187 2673 
Q 2956 2441 2956 1928 
L 2956 0 
L 2394 0 
L 2394 2156 
Q 2394 2531 2256 2718 
Q 2119 2906 1806 2906 
Q 1569 2906 1367 2781 
Q 1166 2656 1075 2415 
Q 984 2175 984 1722 
L 984 0 
L 422 0 
z
" transform="scale(0.015625)"/>
       <path id="ArialMT-29" d="M 791 -1347 
L 388 -1347 
Q 1322 153 1322 1656 
Q 1322 2244 1188 2822 
Q 1081 3291 891 3722 
Q 769 4003 388 4659 
L 791 4659 
Q 1378 3875 1659 3084 
Q 1900 2403 1900 1659 
Q 1900 816 1576 28 
Q 1253 -759 791 -1347 
z
" transform="scale(0.015625)"/>
      </defs>
      <use xlink:href="#ArialMT-4c"/>
      <use xlink:href="#ArialMT-6f" x="55.615234"/>
      <use xlink:href="#ArialMT-63" x="111.230469"/>
      <use xlink:href="#ArialMT-61" x="161.230469"/>
      <use xlink:href="#ArialMT-6c" x="216.845703"/>
      <use xlink:href="#ArialMT-69" x="239.0625"/>
      <use xlink:href="#ArialMT-7a" x="261.279297"/>
      <use xlink:href="#ArialMT-61" x="311.279297"/>
      <use xlink:href="#ArialMT-74" x="366.894531"/>
      <use xlink:href="#ArialMT-69" x="394.677734"/>
      <use xlink:href="#ArialMT-6f" x="416.894531"/>
      <use xlink:href="#ArialMT-6e" x="472.509766"/>
      <use xlink:href="#ArialMT-20" x="528.125"/>
      <use xlink:href="#ArialMT-45" x="555.908203"/>
      <use xlink:href="#ArialMT-72" x="622.607422"/>
      <use xlink:href="#ArialMT-72" x="655.908203"/>
      <use xlink:href="#ArialMT-6f" x="689.208984"/>
      <use xlink:href="#ArialMT-72" x="744.824219"/>
      <use xlink:href="#ArialMT-20" x="778.125"/>
      <use xlink:href="#ArialMT-28" x="805.908203"/>
      <use xlink:href="#ArialMT-6d" x="839.208984"/>
      <use xlink:href="#ArialMT-29" x="922.509766"/>
     </g>
    </g>
   </g>
   <g id="LineCollection_1">
    <path d="M 101.707053 262.822143 
L 101.707053 37.29855 
" clip-path="url(#p02d1238e16)" style="fill: none; stroke: #000000; stroke-width: 1.2"/>
    <path d="M 220.939741 227.643838 
L 220.939741 24.15519 
" clip-path="url(#p02d1238e16)" style="fill: none; stroke: #000000; stroke-width: 1.2"/>
    <path d="M 340.172429 174.470509 
L 340.172429 39.627366 
" clip-path="url(#p02d1238e16)" style="fill: none; stroke: #000000; stroke-width: 1.2"/>
    <path d="M 459.405118 162.094043 
L 459.405118 24.556057 
" clip-path="url(#p02d1238e16)" style="fill: none; stroke: #000000; stroke-width: 1.2"/>
   </g>
   <g id="line2d_31">
    <defs>
     <path id="mefe8e72816" d="M 4 0 
L -4 -0 
" style="stroke: #000000"/>
    </defs>
    <g clip-path="url(#p02d1238e16)">
     <use xlink:href="#mefe8e72816" x="101.707053" y="262.822143" style="stroke: #000000"/>
     <use xlink:href="#mefe8e72816" x="220.939741" y="227.643838" style="stroke: #000000"/>
     <use xlink:href="#mefe8e72816" x="340.172429" y="174.470509" style="stroke: #000000"/>
     <use xlink:href="#mefe8e72816" x="459.405118" y="162.094043" style="stroke: #000000"/>
    </g>
   </g>
   <g id="line2d_32">
    <g clip-path="url(#p02d1238e16)">
     <use xlink:href="#mefe8e72816" x="101.707053" y="37.29855" style="stroke: #000000"/>
     <use xlink:href="#mefe8e72816" x="220.939741" y="24.15519" style="stroke: #000000"/>
     <use xlink:href="#mefe8e72816" x="340.172429" y="39.627366" style="stroke: #000000"/>
     <use xlink:href="#mefe8e72816" x="459.405118" y="24.556057" style="stroke: #000000"/>
    </g>
   </g>
   <g id="LineCollection_2">
    <path d="M 127.938244 325.745225 
L 127.938244 109.161875 
" clip-path="url(#p02d1238e16)" style="fill: none; stroke: #000000; stroke-width: 1.2"/>
    <path d="M 247.170932 244.193825 
L 247.170932 72.749508 
" clip-path="url(#p02d1238e16)" style="fill: none; stroke: #000000; stroke-width: 1.2"/>
    <path d="M 366.403621 196.442634 
L 366.403621 71.363514 
" clip-path="url(#p02d1238e16)" style="fill: none; stroke: #000000; stroke-width: 1.2"/>
    <path d="M 485.636309 176.132935 
L 485.636309 46.64995 
" clip-path="url(#p02d1238e16)" style="fill: none; stroke: #000000; stroke-width: 1.2"/>
   </g>
   <g id="line2d_33">
    <g clip-path="url(#p02d1238e16)">
     <use xlink:href="#mefe8e72816" x="127.938244" y="325.745225" style="stroke: #000000"/>
     <use xlink:href="#mefe8e72816" x="247.170932" y="244.193825" style="stroke: #000000"/>
     <use xlink:href="#mefe8e72816" x="366.403621" y="196.442634" style="stroke: #000000"/>
     <use xlink:href="#mefe8e72816" x="485.636309" y="176.132935" style="stroke: #000000"/>
    </g>
   </g>
   <g id="line2d_34">
    <g clip-path="url(#p02d1238e16)">
     <use xlink:href="#mefe8e72816" x="127.938244" y="109.161875" style="stroke: #000000"/>
     <use xlink:href="#mefe8e72816" x="247.170932" y="72.749508" style="stroke: #000000"/>
     <use xlink:href="#mefe8e72816" x="366.403621" y="71.363514" style="stroke: #000000"/>
     <use xlink:href="#mefe8e72816" x="485.636309" y="46.64995" style="stroke: #000000"/>
    </g>
   </g>
   <g id="LineCollection_3">
    <path d="M 154.169436 363.258982 
L 154.169436 182.614662 
" clip-path="url(#p02d1238e16)" style="fill: none; stroke: #000000; stroke-width: 1.2"/>
    <path d="M 273.402124 286.62481 
L 273.402124 159.818394 
" clip-path="url(#p02d1238e16)" style="fill: none; stroke: #000000; stroke-width: 1.2"/>
    <path d="M 392.634812 209.448695 
L 392.634812 85.134806 
" clip-path="url(#p02d1238e16)" style="fill: none; stroke: #000000; stroke-width: 1.2"/>
    <path d="M 511.8675 188.703213 
L 511.8675 64.269998 
" clip-path="url(#p02d1238e16)" style="fill: none; stroke: #000000; stroke-width: 1.2"/>
   </g>
   <g id="line2d_35">
    <g clip-path="url(#p02d1238e16)">
     <use xlink:href="#mefe8e72816" x="154.169436" y="363.258982" style="stroke: #000000"/>
     <use xlink:href="#mefe8e72816" x="273.402124" y="286.62481" style="stroke: #000000"/>
     <use xlink:href="#mefe8e72816" x="392.634812" y="209.448695" style="stroke: #000000"/>
     <use xlink:href="#mefe8e72816" x="511.8675" y="188.703213" style="stroke: #000000"/>
    </g>
   </g>
   <g id="line2d_36">
    <g clip-path="url(#p02d1238e16)">
     <use xlink:href="#mefe8e72816" x="154.169436" y="182.614662" style="stroke: #000000"/>
     <use xlink:href="#mefe8e72816" x="273.402124" y="159.818394" style="stroke: #000000"/>
     <use xlink:href="#mefe8e72816" x="392.634812" y="85.134806" style="stroke: #000000"/>
     <use xlink:href="#mefe8e72816" x="511.8675" y="64.269998" style="stroke: #000000"/>
    </g>
   </g>
   <g id="patch_15">
    <path d="M 66.771875 380.214172 
L 66.771875 7.2 
" style="fill: none; stroke: #000000; stroke-linejoin: miter; stroke-linecap: square"/>
   </g>
   <g id="patch_16">
    <path d="M 546.802678 380.214172 
L 546.802678 7.2 
" style="fill: none; stroke: #000000; stroke-linejoin: miter; stroke-linecap: square"/>
   </g>
   <g id="patch_17">
    <path d="M 66.771875 380.214172 
L 546.802678 380.214172 
" style="fill: none; stroke: #000000; stroke-linejoin: miter; stroke-linecap: square"/>
   </g>
   <g id="patch_18">
    <path d="M 66.771875 7.2 
L 546.802678 7.2 
" style="fill: none; stroke: #000000; stroke-linejoin: miter; stroke-linecap: square"/>
   </g>
   <g id="legend_1">
    <g id="patch_19">
     <path d="M 330.969408 353.563463 
L 523.601908 353.563463 
Q 526.801908 353.563463 526.801908 350.363463 
L 526.801908 283.360963 
Q 526.801908 280.160963 523.601908 280.160963 
L 330.969408 280.160963 
Q 327.769408 280.160963 327.769408 283.360963 
L 327.769408 350.363463 
Q 327.769408 353.563463 330.969408 353.563463 
z
" style="fill: #ffffff; opacity: 0.8; stroke: #cccccc; stroke-linejoin: miter"/>
    </g>
    <g id="patch_20">
     <path d="M 334.169408 298.060963 
L 366.169408 298.060963 
L 366.169408 286.860963 
L 334.169408 286.860963 
z
" style="fill: #8fa2cd"/>
    </g>
    <g id="text_9">
     <!-- 10,000 training data -->
     <g transform="translate(378.969408 298.060963) scale(0.16 -0.16)">
      <defs>
       <path id="ArialMT-2c" d="M 569 0 
L 569 641 
L 1209 641 
L 1209 0 
Q 1209 -353 1084 -570 
Q 959 -788 688 -906 
L 531 -666 
Q 709 -588 793 -436 
Q 878 -284 888 0 
L 569 0 
z
" transform="scale(0.015625)"/>
       <path id="ArialMT-67" d="M 319 -275 
L 866 -356 
Q 900 -609 1056 -725 
Q 1266 -881 1628 -881 
Q 2019 -881 2231 -725 
Q 2444 -569 2519 -288 
Q 2563 -116 2559 434 
Q 2191 0 1641 0 
Q 956 0 581 494 
Q 206 988 206 1678 
Q 206 2153 378 2554 
Q 550 2956 876 3175 
Q 1203 3394 1644 3394 
Q 2231 3394 2613 2919 
L 2613 3319 
L 3131 3319 
L 3131 450 
Q 3131 -325 2973 -648 
Q 2816 -972 2473 -1159 
Q 2131 -1347 1631 -1347 
Q 1038 -1347 672 -1080 
Q 306 -813 319 -275 
z
M 784 1719 
Q 784 1066 1043 766 
Q 1303 466 1694 466 
Q 2081 466 2343 764 
Q 2606 1063 2606 1700 
Q 2606 2309 2336 2618 
Q 2066 2928 1684 2928 
Q 1309 2928 1046 2623 
Q 784 2319 784 1719 
z
" transform="scale(0.015625)"/>
       <path id="ArialMT-64" d="M 2575 0 
L 2575 419 
Q 2259 -75 1647 -75 
Q 1250 -75 917 144 
Q 584 363 401 755 
Q 219 1147 219 1656 
Q 219 2153 384 2558 
Q 550 2963 881 3178 
Q 1213 3394 1622 3394 
Q 1922 3394 2156 3267 
Q 2391 3141 2538 2938 
L 2538 4581 
L 3097 4581 
L 3097 0 
L 2575 0 
z
M 797 1656 
Q 797 1019 1065 703 
Q 1334 388 1700 388 
Q 2069 388 2326 689 
Q 2584 991 2584 1609 
Q 2584 2291 2321 2609 
Q 2059 2928 1675 2928 
Q 1300 2928 1048 2622 
Q 797 2316 797 1656 
z
" transform="scale(0.015625)"/>
      </defs>
      <use xlink:href="#ArialMT-31"/>
      <use xlink:href="#ArialMT-30" x="55.615234"/>
      <use xlink:href="#ArialMT-2c" x="111.230469"/>
      <use xlink:href="#ArialMT-30" x="139.013672"/>
      <use xlink:href="#ArialMT-30" x="194.628906"/>
      <use xlink:href="#ArialMT-30" x="250.244141"/>
      <use xlink:href="#ArialMT-20" x="305.859375"/>
      <use xlink:href="#ArialMT-74" x="333.642578"/>
      <use xlink:href="#ArialMT-72" x="361.425781"/>
      <use xlink:href="#ArialMT-61" x="394.726562"/>
      <use xlink:href="#ArialMT-69" x="450.341797"/>
      <use xlink:href="#ArialMT-6e" x="472.558594"/>
      <use xlink:href="#ArialMT-69" x="528.173828"/>
      <use xlink:href="#ArialMT-6e" x="550.390625"/>
      <use xlink:href="#ArialMT-67" x="606.005859"/>
      <use xlink:href="#ArialMT-20" x="661.621094"/>
      <use xlink:href="#ArialMT-64" x="689.404297"/>
      <use xlink:href="#ArialMT-61" x="745.019531"/>
      <use xlink:href="#ArialMT-74" x="800.634766"/>
      <use xlink:href="#ArialMT-61" x="828.417969"/>
     </g>
    </g>
    <g id="patch_21">
     <path d="M 334.169408 320.928463 
L 366.169408 320.928463 
L 366.169408 309.728463 
L 334.169408 309.728463 
z
" style="fill: #f8bc7e"/>
    </g>
    <g id="text_10">
     <!-- 20,000 training data -->
     <g transform="translate(378.969408 320.928463) scale(0.16 -0.16)">
      <use xlink:href="#ArialMT-32"/>
      <use xlink:href="#ArialMT-30" x="55.615234"/>
      <use xlink:href="#ArialMT-2c" x="111.230469"/>
      <use xlink:href="#ArialMT-30" x="139.013672"/>
      <use xlink:href="#ArialMT-30" x="194.628906"/>
      <use xlink:href="#ArialMT-30" x="250.244141"/>
      <use xlink:href="#ArialMT-20" x="305.859375"/>
      <use xlink:href="#ArialMT-74" x="333.642578"/>
      <use xlink:href="#ArialMT-72" x="361.425781"/>
      <use xlink:href="#ArialMT-61" x="394.726562"/>
      <use xlink:href="#ArialMT-69" x="450.341797"/>
      <use xlink:href="#ArialMT-6e" x="472.558594"/>
      <use xlink:href="#ArialMT-69" x="528.173828"/>
      <use xlink:href="#ArialMT-6e" x="550.390625"/>
      <use xlink:href="#ArialMT-67" x="606.005859"/>
      <use xlink:href="#ArialMT-20" x="661.621094"/>
      <use xlink:href="#ArialMT-64" x="689.404297"/>
      <use xlink:href="#ArialMT-61" x="745.019531"/>
      <use xlink:href="#ArialMT-74" x="800.634766"/>
      <use xlink:href="#ArialMT-61" x="828.417969"/>
     </g>
    </g>
    <g id="patch_22">
     <path d="M 334.169408 343.795963 
L 366.169408 343.795963 
L 366.169408 332.595963 
L 334.169408 332.595963 
z
" style="fill: #9bbf9e"/>
    </g>
    <g id="text_11">
     <!-- 40,000 training data -->
     <g transform="translate(378.969408 343.795963) scale(0.16 -0.16)">
      <defs>
       <path id="ArialMT-34" d="M 2069 0 
L 2069 1097 
L 81 1097 
L 81 1613 
L 2172 4581 
L 2631 4581 
L 2631 1613 
L 3250 1613 
L 3250 1097 
L 2631 1097 
L 2631 0 
L 2069 0 
z
M 2069 1613 
L 2069 3678 
L 634 1613 
L 2069 1613 
z
" transform="scale(0.015625)"/>
      </defs>
      <use xlink:href="#ArialMT-34"/>
      <use xlink:href="#ArialMT-30" x="55.615234"/>
      <use xlink:href="#ArialMT-2c" x="111.230469"/>
      <use xlink:href="#ArialMT-30" x="139.013672"/>
      <use xlink:href="#ArialMT-30" x="194.628906"/>
      <use xlink:href="#ArialMT-30" x="250.244141"/>
      <use xlink:href="#ArialMT-20" x="305.859375"/>
      <use xlink:href="#ArialMT-74" x="333.642578"/>
      <use xlink:href="#ArialMT-72" x="361.425781"/>
      <use xlink:href="#ArialMT-61" x="394.726562"/>
      <use xlink:href="#ArialMT-69" x="450.341797"/>
      <use xlink:href="#ArialMT-6e" x="472.558594"/>
      <use xlink:href="#ArialMT-69" x="528.173828"/>
      <use xlink:href="#ArialMT-6e" x="550.390625"/>
      <use xlink:href="#ArialMT-67" x="606.005859"/>
      <use xlink:href="#ArialMT-20" x="661.621094"/>
      <use xlink:href="#ArialMT-64" x="689.404297"/>
      <use xlink:href="#ArialMT-61" x="745.019531"/>
      <use xlink:href="#ArialMT-74" x="800.634766"/>
      <use xlink:href="#ArialMT-61" x="828.417969"/>
     </g>
    </g>
   </g>
  </g>
 </g>
 <defs>
  <clipPath id="p02d1238e16">
   <rect x="66.771875" y="7.2" width="480.030803" height="373.014172"/>
  </clipPath>
 </defs>
</svg>
