<?xml version="1.0" encoding="utf-8" standalone="no"?>
<!DOCTYPE svg PUBLIC "-//W3C//DTD SVG 1.1//EN"
  "http://www.w3.org/Graphics/SVG/1.1/DTD/svg11.dtd">
<svg xmlns:xlink="http://www.w3.org/1999/xlink" width="555.442678pt" height="409.305938pt" viewBox="0 0 555.442678 409.305938" xmlns="http://www.w3.org/2000/svg" version="1.1">
 <metadata>
  <rdf:RDF xmlns:dc="http://purl.org/dc/elements/1.1/" xmlns:cc="http://creativecommons.org/ns#" xmlns:rdf="http://www.w3.org/1999/02/22-rdf-syntax-ns#">
   <cc:Work>
    <dc:type rdf:resource="http://purl.org/dc/dcmitype/StillImage"/>
    <dc:date>2025-02-09T22:16:57.080226</dc:date>
    <dc:format>image/svg+xml</dc:format>
    <dc:creator>
     <cc:Agent>
      <dc:title>Matplotlib v3.9.4, https://matplotlib.org/</dc:title>
     </cc:Agent>
    </dc:creator>
   </cc:Work>
  </rdf:RDF>
 </metadata>
 <defs>
  <style type="text/css">*{stroke-linejoin: round; stroke-linecap: butt}</style>
 </defs>
 <g id="figure_1">
  <g id="patch_1">
   <path d="M 0 409.305938 
L 555.442678 409.305938 
L 555.442678 0 
L 0 0 
z
" style="fill: #ffffff"/>
  </g>
  <g id="axes_1">
   <g id="patch_2">
    <path d="M 66.771875 360.52 
L 548.242678 360.52 
L 548.242678 7.2 
L 66.771875 7.2 
z
" style="fill: #ffffff"/>
   </g>
   <g id="matplotlib.axis_1">
    <g id="xtick_1">
     <g id="line2d_1">
      <defs>
       <path id="mf4c760a140" d="M 0 0 
L 0 3.5 
" style="stroke: #000000; stroke-width: 0.8"/>
      </defs>
      <g>
       <use xlink:href="#mf4c760a140" x="88.656912" y="360.52" style="stroke: #000000; stroke-width: 0.8"/>
      </g>
     </g>
     <g id="text_1">
      <!-- 0 -->
      <g transform="translate(84.208162 378.9725) scale(0.16 -0.16)">
       <defs>
        <path id="ArialMT-30" d="M 266 2259 
Q 266 3072 433 3567 
Q 600 4063 929 4331 
Q 1259 4600 1759 4600 
Q 2128 4600 2406 4451 
Q 2684 4303 2865 4023 
Q 3047 3744 3150 3342 
Q 3253 2941 3253 2259 
Q 3253 1453 3087 958 
Q 2922 463 2592 192 
Q 2263 -78 1759 -78 
Q 1097 -78 719 397 
Q 266 969 266 2259 
z
M 844 2259 
Q 844 1131 1108 757 
Q 1372 384 1759 384 
Q 2147 384 2411 759 
Q 2675 1134 2675 2259 
Q 2675 3391 2411 3762 
Q 2147 4134 1753 4134 
Q 1366 4134 1134 3806 
Q 844 3388 844 2259 
z
" transform="scale(0.015625)"/>
       </defs>
       <use xlink:href="#ArialMT-30"/>
      </g>
     </g>
    </g>
    <g id="xtick_2">
     <g id="line2d_2">
      <g>
       <use xlink:href="#mf4c760a140" x="176.197058" y="360.52" style="stroke: #000000; stroke-width: 0.8"/>
      </g>
     </g>
     <g id="text_2">
      <!-- 10 -->
      <g transform="translate(167.299558 378.9725) scale(0.16 -0.16)">
       <defs>
        <path id="ArialMT-31" d="M 2384 0 
L 1822 0 
L 1822 3584 
Q 1619 3391 1289 3197 
Q 959 3003 697 2906 
L 697 3450 
Q 1169 3672 1522 3987 
Q 1875 4303 2022 4600 
L 2384 4600 
L 2384 0 
z
" transform="scale(0.015625)"/>
       </defs>
       <use xlink:href="#ArialMT-31"/>
       <use xlink:href="#ArialMT-30" x="55.615234"/>
      </g>
     </g>
    </g>
    <g id="xtick_3">
     <g id="line2d_3">
      <g>
       <use xlink:href="#mf4c760a140" x="263.737204" y="360.52" style="stroke: #000000; stroke-width: 0.8"/>
      </g>
     </g>
     <g id="text_3">
      <!-- 20 -->
      <g transform="translate(254.839704 378.9725) scale(0.16 -0.16)">
       <defs>
        <path id="ArialMT-32" d="M 3222 541 
L 3222 0 
L 194 0 
Q 188 203 259 391 
Q 375 700 629 1000 
Q 884 1300 1366 1694 
Q 2113 2306 2375 2664 
Q 2638 3022 2638 3341 
Q 2638 3675 2398 3904 
Q 2159 4134 1775 4134 
Q 1369 4134 1125 3890 
Q 881 3647 878 3216 
L 300 3275 
Q 359 3922 746 4261 
Q 1134 4600 1788 4600 
Q 2447 4600 2831 4234 
Q 3216 3869 3216 3328 
Q 3216 3053 3103 2787 
Q 2991 2522 2730 2228 
Q 2469 1934 1863 1422 
Q 1356 997 1212 845 
Q 1069 694 975 541 
L 3222 541 
z
" transform="scale(0.015625)"/>
       </defs>
       <use xlink:href="#ArialMT-32"/>
       <use xlink:href="#ArialMT-30" x="55.615234"/>
      </g>
     </g>
    </g>
    <g id="xtick_4">
     <g id="line2d_4">
      <g>
       <use xlink:href="#mf4c760a140" x="351.27735" y="360.52" style="stroke: #000000; stroke-width: 0.8"/>
      </g>
     </g>
     <g id="text_4">
      <!-- 30 -->
      <g transform="translate(342.37985 378.9725) scale(0.16 -0.16)">
       <defs>
        <path id="ArialMT-33" d="M 269 1209 
L 831 1284 
Q 928 806 1161 595 
Q 1394 384 1728 384 
Q 2125 384 2398 659 
Q 2672 934 2672 1341 
Q 2672 1728 2419 1979 
Q 2166 2231 1775 2231 
Q 1616 2231 1378 2169 
L 1441 2663 
Q 1497 2656 1531 2656 
Q 1891 2656 2178 2843 
Q 2466 3031 2466 3422 
Q 2466 3731 2256 3934 
Q 2047 4138 1716 4138 
Q 1388 4138 1169 3931 
Q 950 3725 888 3313 
L 325 3413 
Q 428 3978 793 4289 
Q 1159 4600 1703 4600 
Q 2078 4600 2393 4439 
Q 2709 4278 2876 4000 
Q 3044 3722 3044 3409 
Q 3044 3113 2884 2869 
Q 2725 2625 2413 2481 
Q 2819 2388 3044 2092 
Q 3269 1797 3269 1353 
Q 3269 753 2831 336 
Q 2394 -81 1725 -81 
Q 1122 -81 723 278 
Q 325 638 269 1209 
z
" transform="scale(0.015625)"/>
       </defs>
       <use xlink:href="#ArialMT-33"/>
       <use xlink:href="#ArialMT-30" x="55.615234"/>
      </g>
     </g>
    </g>
    <g id="xtick_5">
     <g id="line2d_5">
      <g>
       <use xlink:href="#mf4c760a140" x="438.817496" y="360.52" style="stroke: #000000; stroke-width: 0.8"/>
      </g>
     </g>
     <g id="text_5">
      <!-- 40 -->
      <g transform="translate(429.919996 378.9725) scale(0.16 -0.16)">
       <defs>
        <path id="ArialMT-34" d="M 2069 0 
L 2069 1097 
L 81 1097 
L 81 1613 
L 2172 4581 
L 2631 4581 
L 2631 1613 
L 3250 1613 
L 3250 1097 
L 2631 1097 
L 2631 0 
L 2069 0 
z
M 2069 1613 
L 2069 3678 
L 634 1613 
L 2069 1613 
z
" transform="scale(0.015625)"/>
       </defs>
       <use xlink:href="#ArialMT-34"/>
       <use xlink:href="#ArialMT-30" x="55.615234"/>
      </g>
     </g>
    </g>
    <g id="xtick_6">
     <g id="line2d_6">
      <g>
       <use xlink:href="#mf4c760a140" x="526.357642" y="360.52" style="stroke: #000000; stroke-width: 0.8"/>
      </g>
     </g>
     <g id="text_6">
      <!-- 50 -->
      <g transform="translate(517.460142 378.9725) scale(0.16 -0.16)">
       <defs>
        <path id="ArialMT-35" d="M 266 1200 
L 856 1250 
Q 922 819 1161 601 
Q 1400 384 1738 384 
Q 2144 384 2425 690 
Q 2706 997 2706 1503 
Q 2706 1984 2436 2262 
Q 2166 2541 1728 2541 
Q 1456 2541 1237 2417 
Q 1019 2294 894 2097 
L 366 2166 
L 809 4519 
L 3088 4519 
L 3088 3981 
L 1259 3981 
L 1013 2750 
Q 1425 3038 1878 3038 
Q 2478 3038 2890 2622 
Q 3303 2206 3303 1553 
Q 3303 931 2941 478 
Q 2500 -78 1738 -78 
Q 1113 -78 717 272 
Q 322 622 266 1200 
z
" transform="scale(0.015625)"/>
       </defs>
       <use xlink:href="#ArialMT-35"/>
       <use xlink:href="#ArialMT-30" x="55.615234"/>
      </g>
     </g>
    </g>
    <g id="text_7">
     <!-- Epoch of Tuning/Training -->
     <g transform="translate(213.327277 398.527969) scale(0.17 -0.17)">
      <defs>
       <path id="ArialMT-45" d="M 506 0 
L 506 4581 
L 3819 4581 
L 3819 4041 
L 1113 4041 
L 1113 2638 
L 3647 2638 
L 3647 2100 
L 1113 2100 
L 1113 541 
L 3925 541 
L 3925 0 
L 506 0 
z
" transform="scale(0.015625)"/>
       <path id="ArialMT-70" d="M 422 -1272 
L 422 3319 
L 934 3319 
L 934 2888 
Q 1116 3141 1344 3267 
Q 1572 3394 1897 3394 
Q 2322 3394 2647 3175 
Q 2972 2956 3137 2557 
Q 3303 2159 3303 1684 
Q 3303 1175 3120 767 
Q 2938 359 2589 142 
Q 2241 -75 1856 -75 
Q 1575 -75 1351 44 
Q 1128 163 984 344 
L 984 -1272 
L 422 -1272 
z
M 931 1641 
Q 931 1000 1190 694 
Q 1450 388 1819 388 
Q 2194 388 2461 705 
Q 2728 1022 2728 1688 
Q 2728 2322 2467 2637 
Q 2206 2953 1844 2953 
Q 1484 2953 1207 2617 
Q 931 2281 931 1641 
z
" transform="scale(0.015625)"/>
       <path id="ArialMT-6f" d="M 213 1659 
Q 213 2581 725 3025 
Q 1153 3394 1769 3394 
Q 2453 3394 2887 2945 
Q 3322 2497 3322 1706 
Q 3322 1066 3130 698 
Q 2938 331 2570 128 
Q 2203 -75 1769 -75 
Q 1072 -75 642 372 
Q 213 819 213 1659 
z
M 791 1659 
Q 791 1022 1069 705 
Q 1347 388 1769 388 
Q 2188 388 2466 706 
Q 2744 1025 2744 1678 
Q 2744 2294 2464 2611 
Q 2184 2928 1769 2928 
Q 1347 2928 1069 2612 
Q 791 2297 791 1659 
z
" transform="scale(0.015625)"/>
       <path id="ArialMT-63" d="M 2588 1216 
L 3141 1144 
Q 3050 572 2676 248 
Q 2303 -75 1759 -75 
Q 1078 -75 664 370 
Q 250 816 250 1647 
Q 250 2184 428 2587 
Q 606 2991 970 3192 
Q 1334 3394 1763 3394 
Q 2303 3394 2647 3120 
Q 2991 2847 3088 2344 
L 2541 2259 
Q 2463 2594 2264 2762 
Q 2066 2931 1784 2931 
Q 1359 2931 1093 2626 
Q 828 2322 828 1663 
Q 828 994 1084 691 
Q 1341 388 1753 388 
Q 2084 388 2306 591 
Q 2528 794 2588 1216 
z
" transform="scale(0.015625)"/>
       <path id="ArialMT-68" d="M 422 0 
L 422 4581 
L 984 4581 
L 984 2938 
Q 1378 3394 1978 3394 
Q 2347 3394 2619 3248 
Q 2891 3103 3008 2847 
Q 3125 2591 3125 2103 
L 3125 0 
L 2563 0 
L 2563 2103 
Q 2563 2525 2380 2717 
Q 2197 2909 1863 2909 
Q 1613 2909 1392 2779 
Q 1172 2650 1078 2428 
Q 984 2206 984 1816 
L 984 0 
L 422 0 
z
" transform="scale(0.015625)"/>
       <path id="ArialMT-20" transform="scale(0.015625)"/>
       <path id="ArialMT-66" d="M 556 0 
L 556 2881 
L 59 2881 
L 59 3319 
L 556 3319 
L 556 3672 
Q 556 4006 616 4169 
Q 697 4388 901 4523 
Q 1106 4659 1475 4659 
Q 1713 4659 2000 4603 
L 1916 4113 
Q 1741 4144 1584 4144 
Q 1328 4144 1222 4034 
Q 1116 3925 1116 3625 
L 1116 3319 
L 1763 3319 
L 1763 2881 
L 1116 2881 
L 1116 0 
L 556 0 
z
" transform="scale(0.015625)"/>
       <path id="ArialMT-54" d="M 1659 0 
L 1659 4041 
L 150 4041 
L 150 4581 
L 3781 4581 
L 3781 4041 
L 2266 4041 
L 2266 0 
L 1659 0 
z
" transform="scale(0.015625)"/>
       <path id="ArialMT-75" d="M 2597 0 
L 2597 488 
Q 2209 -75 1544 -75 
Q 1250 -75 995 37 
Q 741 150 617 320 
Q 494 491 444 738 
Q 409 903 409 1263 
L 409 3319 
L 972 3319 
L 972 1478 
Q 972 1038 1006 884 
Q 1059 663 1231 536 
Q 1403 409 1656 409 
Q 1909 409 2131 539 
Q 2353 669 2445 892 
Q 2538 1116 2538 1541 
L 2538 3319 
L 3100 3319 
L 3100 0 
L 2597 0 
z
" transform="scale(0.015625)"/>
       <path id="ArialMT-6e" d="M 422 0 
L 422 3319 
L 928 3319 
L 928 2847 
Q 1294 3394 1984 3394 
Q 2284 3394 2536 3286 
Q 2788 3178 2913 3003 
Q 3038 2828 3088 2588 
Q 3119 2431 3119 2041 
L 3119 0 
L 2556 0 
L 2556 2019 
Q 2556 2363 2490 2533 
Q 2425 2703 2258 2804 
Q 2091 2906 1866 2906 
Q 1506 2906 1245 2678 
Q 984 2450 984 1813 
L 984 0 
L 422 0 
z
" transform="scale(0.015625)"/>
       <path id="ArialMT-69" d="M 425 3934 
L 425 4581 
L 988 4581 
L 988 3934 
L 425 3934 
z
M 425 0 
L 425 3319 
L 988 3319 
L 988 0 
L 425 0 
z
" transform="scale(0.015625)"/>
       <path id="ArialMT-67" d="M 319 -275 
L 866 -356 
Q 900 -609 1056 -725 
Q 1266 -881 1628 -881 
Q 2019 -881 2231 -725 
Q 2444 -569 2519 -288 
Q 2563 -116 2559 434 
Q 2191 0 1641 0 
Q 956 0 581 494 
Q 206 988 206 1678 
Q 206 2153 378 2554 
Q 550 2956 876 3175 
Q 1203 3394 1644 3394 
Q 2231 3394 2613 2919 
L 2613 3319 
L 3131 3319 
L 3131 450 
Q 3131 -325 2973 -648 
Q 2816 -972 2473 -1159 
Q 2131 -1347 1631 -1347 
Q 1038 -1347 672 -1080 
Q 306 -813 319 -275 
z
M 784 1719 
Q 784 1066 1043 766 
Q 1303 466 1694 466 
Q 2081 466 2343 764 
Q 2606 1063 2606 1700 
Q 2606 2309 2336 2618 
Q 2066 2928 1684 2928 
Q 1309 2928 1046 2623 
Q 784 2319 784 1719 
z
" transform="scale(0.015625)"/>
       <path id="ArialMT-2f" d="M 0 -78 
L 1328 4659 
L 1778 4659 
L 453 -78 
L 0 -78 
z
" transform="scale(0.015625)"/>
       <path id="ArialMT-72" d="M 416 0 
L 416 3319 
L 922 3319 
L 922 2816 
Q 1116 3169 1280 3281 
Q 1444 3394 1641 3394 
Q 1925 3394 2219 3213 
L 2025 2691 
Q 1819 2813 1613 2813 
Q 1428 2813 1281 2702 
Q 1134 2591 1072 2394 
Q 978 2094 978 1738 
L 978 0 
L 416 0 
z
" transform="scale(0.015625)"/>
       <path id="ArialMT-61" d="M 2588 409 
Q 2275 144 1986 34 
Q 1697 -75 1366 -75 
Q 819 -75 525 192 
Q 231 459 231 875 
Q 231 1119 342 1320 
Q 453 1522 633 1644 
Q 813 1766 1038 1828 
Q 1203 1872 1538 1913 
Q 2219 1994 2541 2106 
Q 2544 2222 2544 2253 
Q 2544 2597 2384 2738 
Q 2169 2928 1744 2928 
Q 1347 2928 1158 2789 
Q 969 2650 878 2297 
L 328 2372 
Q 403 2725 575 2942 
Q 747 3159 1072 3276 
Q 1397 3394 1825 3394 
Q 2250 3394 2515 3294 
Q 2781 3194 2906 3042 
Q 3031 2891 3081 2659 
Q 3109 2516 3109 2141 
L 3109 1391 
Q 3109 606 3145 398 
Q 3181 191 3288 0 
L 2700 0 
Q 2613 175 2588 409 
z
M 2541 1666 
Q 2234 1541 1622 1453 
Q 1275 1403 1131 1340 
Q 988 1278 909 1158 
Q 831 1038 831 891 
Q 831 666 1001 516 
Q 1172 366 1500 366 
Q 1825 366 2078 508 
Q 2331 650 2450 897 
Q 2541 1088 2541 1459 
L 2541 1666 
z
" transform="scale(0.015625)"/>
      </defs>
      <use xlink:href="#ArialMT-45"/>
      <use xlink:href="#ArialMT-70" x="66.699219"/>
      <use xlink:href="#ArialMT-6f" x="122.314453"/>
      <use xlink:href="#ArialMT-63" x="177.929688"/>
      <use xlink:href="#ArialMT-68" x="227.929688"/>
      <use xlink:href="#ArialMT-20" x="283.544922"/>
      <use xlink:href="#ArialMT-6f" x="311.328125"/>
      <use xlink:href="#ArialMT-66" x="366.943359"/>
      <use xlink:href="#ArialMT-20" x="394.726562"/>
      <use xlink:href="#ArialMT-54" x="420.759766"/>
      <use xlink:href="#ArialMT-75" x="478.09375"/>
      <use xlink:href="#ArialMT-6e" x="533.708984"/>
      <use xlink:href="#ArialMT-69" x="589.324219"/>
      <use xlink:href="#ArialMT-6e" x="611.541016"/>
      <use xlink:href="#ArialMT-67" x="667.15625"/>
      <use xlink:href="#ArialMT-2f" x="722.771484"/>
      <use xlink:href="#ArialMT-54" x="750.554688"/>
      <use xlink:href="#ArialMT-72" x="807.888672"/>
      <use xlink:href="#ArialMT-61" x="841.189453"/>
      <use xlink:href="#ArialMT-69" x="896.804688"/>
      <use xlink:href="#ArialMT-6e" x="919.021484"/>
      <use xlink:href="#ArialMT-69" x="974.636719"/>
      <use xlink:href="#ArialMT-6e" x="996.853516"/>
      <use xlink:href="#ArialMT-67" x="1052.46875"/>
     </g>
    </g>
   </g>
   <g id="matplotlib.axis_2">
    <g id="ytick_1">
     <g id="line2d_7">
      <path d="M 66.771875 283.655592 
L 548.242678 283.655592 
" clip-path="url(#p7f728eaa30)" style="fill: none; stroke-dasharray: 2.96,1.28; stroke-dashoffset: 0; stroke: #b0b0b0; stroke-opacity: 0.6; stroke-width: 0.8"/>
     </g>
     <g id="line2d_8">
      <defs>
       <path id="m55563a7cb2" d="M 0 0 
L -3.5 0 
" style="stroke: #000000; stroke-width: 0.8"/>
      </defs>
      <g>
       <use xlink:href="#m55563a7cb2" x="66.771875" y="283.655592" style="stroke: #000000; stroke-width: 0.8"/>
      </g>
     </g>
     <g id="text_8">
      <!-- $\mathdefault{10^{-1}}$ -->
      <g transform="translate(28.091875 291.905592) scale(0.16 -0.16)">
       <defs>
        <path id="ArialMT-2212" d="M 3381 1997 
L 356 1997 
L 356 2522 
L 3381 2522 
L 3381 1997 
z
" transform="scale(0.015625)"/>
       </defs>
       <use xlink:href="#ArialMT-31" transform="translate(0 0.99375)"/>
       <use xlink:href="#ArialMT-30" transform="translate(55.615234 0.99375)"/>
       <use xlink:href="#ArialMT-2212" transform="translate(112.972813 70.6875) scale(0.7)"/>
       <use xlink:href="#ArialMT-31" transform="translate(153.851719 70.6875) scale(0.7)"/>
      </g>
     </g>
    </g>
    <g id="ytick_2">
     <g id="line2d_9">
      <path d="M 66.771875 182.36999 
L 548.242678 182.36999 
" clip-path="url(#p7f728eaa30)" style="fill: none; stroke-dasharray: 2.96,1.28; stroke-dashoffset: 0; stroke: #b0b0b0; stroke-opacity: 0.6; stroke-width: 0.8"/>
     </g>
     <g id="line2d_10">
      <g>
       <use xlink:href="#m55563a7cb2" x="66.771875" y="182.36999" style="stroke: #000000; stroke-width: 0.8"/>
      </g>
     </g>
     <g id="text_9">
      <!-- $\mathdefault{10^{0}}$ -->
      <g transform="translate(34.651875 190.61999) scale(0.16 -0.16)">
       <use xlink:href="#ArialMT-31" transform="translate(0 0.99375)"/>
       <use xlink:href="#ArialMT-30" transform="translate(55.615234 0.99375)"/>
       <use xlink:href="#ArialMT-30" transform="translate(112.972813 70.6875) scale(0.7)"/>
      </g>
     </g>
    </g>
    <g id="ytick_3">
     <g id="line2d_11">
      <path d="M 66.771875 81.084388 
L 548.242678 81.084388 
" clip-path="url(#p7f728eaa30)" style="fill: none; stroke-dasharray: 2.96,1.28; stroke-dashoffset: 0; stroke: #b0b0b0; stroke-opacity: 0.6; stroke-width: 0.8"/>
     </g>
     <g id="line2d_12">
      <g>
       <use xlink:href="#m55563a7cb2" x="66.771875" y="81.084388" style="stroke: #000000; stroke-width: 0.8"/>
      </g>
     </g>
     <g id="text_10">
      <!-- $\mathdefault{10^{1}}$ -->
      <g transform="translate(34.651875 89.334388) scale(0.16 -0.16)">
       <use xlink:href="#ArialMT-31" transform="translate(0 0.99375)"/>
       <use xlink:href="#ArialMT-30" transform="translate(55.615234 0.99375)"/>
       <use xlink:href="#ArialMT-31" transform="translate(112.972813 70.6875) scale(0.7)"/>
      </g>
     </g>
    </g>
    <g id="ytick_4">
     <g id="line2d_13">
      <defs>
       <path id="m81fd1b2b03" d="M 0 0 
L -2 0 
" style="stroke: #000000; stroke-width: 0.6"/>
      </defs>
      <g>
       <use xlink:href="#m81fd1b2b03" x="66.771875" y="354.451189" style="stroke: #000000; stroke-width: 0.6"/>
      </g>
     </g>
    </g>
    <g id="ytick_5">
     <g id="line2d_14">
      <g>
       <use xlink:href="#m81fd1b2b03" x="66.771875" y="336.61568" style="stroke: #000000; stroke-width: 0.6"/>
      </g>
     </g>
    </g>
    <g id="ytick_6">
     <g id="line2d_15">
      <g>
       <use xlink:href="#m81fd1b2b03" x="66.771875" y="323.961185" style="stroke: #000000; stroke-width: 0.6"/>
      </g>
     </g>
    </g>
    <g id="ytick_7">
     <g id="line2d_16">
      <g>
       <use xlink:href="#m81fd1b2b03" x="66.771875" y="314.145596" style="stroke: #000000; stroke-width: 0.6"/>
      </g>
     </g>
    </g>
    <g id="ytick_8">
     <g id="line2d_17">
      <g>
       <use xlink:href="#m81fd1b2b03" x="66.771875" y="306.125676" style="stroke: #000000; stroke-width: 0.6"/>
      </g>
     </g>
    </g>
    <g id="ytick_9">
     <g id="line2d_18">
      <g>
       <use xlink:href="#m81fd1b2b03" x="66.771875" y="299.34493" style="stroke: #000000; stroke-width: 0.6"/>
      </g>
     </g>
    </g>
    <g id="ytick_10">
     <g id="line2d_19">
      <g>
       <use xlink:href="#m81fd1b2b03" x="66.771875" y="293.471181" style="stroke: #000000; stroke-width: 0.6"/>
      </g>
     </g>
    </g>
    <g id="ytick_11">
     <g id="line2d_20">
      <g>
       <use xlink:href="#m81fd1b2b03" x="66.771875" y="288.290167" style="stroke: #000000; stroke-width: 0.6"/>
      </g>
     </g>
    </g>
    <g id="ytick_12">
     <g id="line2d_21">
      <g>
       <use xlink:href="#m81fd1b2b03" x="66.771875" y="253.165587" style="stroke: #000000; stroke-width: 0.6"/>
      </g>
     </g>
    </g>
    <g id="ytick_13">
     <g id="line2d_22">
      <g>
       <use xlink:href="#m81fd1b2b03" x="66.771875" y="235.330078" style="stroke: #000000; stroke-width: 0.6"/>
      </g>
     </g>
    </g>
    <g id="ytick_14">
     <g id="line2d_23">
      <g>
       <use xlink:href="#m81fd1b2b03" x="66.771875" y="222.675583" style="stroke: #000000; stroke-width: 0.6"/>
      </g>
     </g>
    </g>
    <g id="ytick_15">
     <g id="line2d_24">
      <g>
       <use xlink:href="#m81fd1b2b03" x="66.771875" y="212.859994" style="stroke: #000000; stroke-width: 0.6"/>
      </g>
     </g>
    </g>
    <g id="ytick_16">
     <g id="line2d_25">
      <g>
       <use xlink:href="#m81fd1b2b03" x="66.771875" y="204.840074" style="stroke: #000000; stroke-width: 0.6"/>
      </g>
     </g>
    </g>
    <g id="ytick_17">
     <g id="line2d_26">
      <g>
       <use xlink:href="#m81fd1b2b03" x="66.771875" y="198.059328" style="stroke: #000000; stroke-width: 0.6"/>
      </g>
     </g>
    </g>
    <g id="ytick_18">
     <g id="line2d_27">
      <g>
       <use xlink:href="#m81fd1b2b03" x="66.771875" y="192.185579" style="stroke: #000000; stroke-width: 0.6"/>
      </g>
     </g>
    </g>
    <g id="ytick_19">
     <g id="line2d_28">
      <g>
       <use xlink:href="#m81fd1b2b03" x="66.771875" y="187.004565" style="stroke: #000000; stroke-width: 0.6"/>
      </g>
     </g>
    </g>
    <g id="ytick_20">
     <g id="line2d_29">
      <g>
       <use xlink:href="#m81fd1b2b03" x="66.771875" y="151.879986" style="stroke: #000000; stroke-width: 0.6"/>
      </g>
     </g>
    </g>
    <g id="ytick_21">
     <g id="line2d_30">
      <g>
       <use xlink:href="#m81fd1b2b03" x="66.771875" y="134.044476" style="stroke: #000000; stroke-width: 0.6"/>
      </g>
     </g>
    </g>
    <g id="ytick_22">
     <g id="line2d_31">
      <g>
       <use xlink:href="#m81fd1b2b03" x="66.771875" y="121.389981" style="stroke: #000000; stroke-width: 0.6"/>
      </g>
     </g>
    </g>
    <g id="ytick_23">
     <g id="line2d_32">
      <g>
       <use xlink:href="#m81fd1b2b03" x="66.771875" y="111.574392" style="stroke: #000000; stroke-width: 0.6"/>
      </g>
     </g>
    </g>
    <g id="ytick_24">
     <g id="line2d_33">
      <g>
       <use xlink:href="#m81fd1b2b03" x="66.771875" y="103.554472" style="stroke: #000000; stroke-width: 0.6"/>
      </g>
     </g>
    </g>
    <g id="ytick_25">
     <g id="line2d_34">
      <g>
       <use xlink:href="#m81fd1b2b03" x="66.771875" y="96.773726" style="stroke: #000000; stroke-width: 0.6"/>
      </g>
     </g>
    </g>
    <g id="ytick_26">
     <g id="line2d_35">
      <g>
       <use xlink:href="#m81fd1b2b03" x="66.771875" y="90.899977" style="stroke: #000000; stroke-width: 0.6"/>
      </g>
     </g>
    </g>
    <g id="ytick_27">
     <g id="line2d_36">
      <g>
       <use xlink:href="#m81fd1b2b03" x="66.771875" y="85.718963" style="stroke: #000000; stroke-width: 0.6"/>
      </g>
     </g>
    </g>
    <g id="ytick_28">
     <g id="line2d_37">
      <g>
       <use xlink:href="#m81fd1b2b03" x="66.771875" y="50.594384" style="stroke: #000000; stroke-width: 0.6"/>
      </g>
     </g>
    </g>
    <g id="ytick_29">
     <g id="line2d_38">
      <g>
       <use xlink:href="#m81fd1b2b03" x="66.771875" y="32.758875" style="stroke: #000000; stroke-width: 0.6"/>
      </g>
     </g>
    </g>
    <g id="ytick_30">
     <g id="line2d_39">
      <g>
       <use xlink:href="#m81fd1b2b03" x="66.771875" y="20.10438" style="stroke: #000000; stroke-width: 0.6"/>
      </g>
     </g>
    </g>
    <g id="ytick_31">
     <g id="line2d_40">
      <g>
       <use xlink:href="#m81fd1b2b03" x="66.771875" y="10.288791" style="stroke: #000000; stroke-width: 0.6"/>
      </g>
     </g>
    </g>
    <g id="text_11">
     <!-- Average Localization Error (m) -->
     <g transform="translate(20.303438 305.739688) rotate(-90) scale(0.18 -0.18)">
      <defs>
       <path id="ArialMT-41" d="M -9 0 
L 1750 4581 
L 2403 4581 
L 4278 0 
L 3588 0 
L 3053 1388 
L 1138 1388 
L 634 0 
L -9 0 
z
M 1313 1881 
L 2866 1881 
L 2388 3150 
Q 2169 3728 2063 4100 
Q 1975 3659 1816 3225 
L 1313 1881 
z
" transform="scale(0.015625)"/>
       <path id="ArialMT-76" d="M 1344 0 
L 81 3319 
L 675 3319 
L 1388 1331 
Q 1503 1009 1600 663 
Q 1675 925 1809 1294 
L 2547 3319 
L 3125 3319 
L 1869 0 
L 1344 0 
z
" transform="scale(0.015625)"/>
       <path id="ArialMT-65" d="M 2694 1069 
L 3275 997 
Q 3138 488 2766 206 
Q 2394 -75 1816 -75 
Q 1088 -75 661 373 
Q 234 822 234 1631 
Q 234 2469 665 2931 
Q 1097 3394 1784 3394 
Q 2450 3394 2872 2941 
Q 3294 2488 3294 1666 
Q 3294 1616 3291 1516 
L 816 1516 
Q 847 969 1125 678 
Q 1403 388 1819 388 
Q 2128 388 2347 550 
Q 2566 713 2694 1069 
z
M 847 1978 
L 2700 1978 
Q 2663 2397 2488 2606 
Q 2219 2931 1791 2931 
Q 1403 2931 1139 2672 
Q 875 2413 847 1978 
z
" transform="scale(0.015625)"/>
       <path id="ArialMT-4c" d="M 469 0 
L 469 4581 
L 1075 4581 
L 1075 541 
L 3331 541 
L 3331 0 
L 469 0 
z
" transform="scale(0.015625)"/>
       <path id="ArialMT-6c" d="M 409 0 
L 409 4581 
L 972 4581 
L 972 0 
L 409 0 
z
" transform="scale(0.015625)"/>
       <path id="ArialMT-7a" d="M 125 0 
L 125 456 
L 2238 2881 
Q 1878 2863 1603 2863 
L 250 2863 
L 250 3319 
L 2963 3319 
L 2963 2947 
L 1166 841 
L 819 456 
Q 1197 484 1528 484 
L 3063 484 
L 3063 0 
L 125 0 
z
" transform="scale(0.015625)"/>
       <path id="ArialMT-74" d="M 1650 503 
L 1731 6 
Q 1494 -44 1306 -44 
Q 1000 -44 831 53 
Q 663 150 594 308 
Q 525 466 525 972 
L 525 2881 
L 113 2881 
L 113 3319 
L 525 3319 
L 525 4141 
L 1084 4478 
L 1084 3319 
L 1650 3319 
L 1650 2881 
L 1084 2881 
L 1084 941 
Q 1084 700 1114 631 
Q 1144 563 1211 522 
Q 1278 481 1403 481 
Q 1497 481 1650 503 
z
" transform="scale(0.015625)"/>
       <path id="ArialMT-28" d="M 1497 -1347 
Q 1031 -759 709 28 
Q 388 816 388 1659 
Q 388 2403 628 3084 
Q 909 3875 1497 4659 
L 1900 4659 
Q 1522 4009 1400 3731 
Q 1209 3300 1100 2831 
Q 966 2247 966 1656 
Q 966 153 1900 -1347 
L 1497 -1347 
z
" transform="scale(0.015625)"/>
       <path id="ArialMT-6d" d="M 422 0 
L 422 3319 
L 925 3319 
L 925 2853 
Q 1081 3097 1340 3245 
Q 1600 3394 1931 3394 
Q 2300 3394 2536 3241 
Q 2772 3088 2869 2813 
Q 3263 3394 3894 3394 
Q 4388 3394 4653 3120 
Q 4919 2847 4919 2278 
L 4919 0 
L 4359 0 
L 4359 2091 
Q 4359 2428 4304 2576 
Q 4250 2725 4106 2815 
Q 3963 2906 3769 2906 
Q 3419 2906 3187 2673 
Q 2956 2441 2956 1928 
L 2956 0 
L 2394 0 
L 2394 2156 
Q 2394 2531 2256 2718 
Q 2119 2906 1806 2906 
Q 1569 2906 1367 2781 
Q 1166 2656 1075 2415 
Q 984 2175 984 1722 
L 984 0 
L 422 0 
z
" transform="scale(0.015625)"/>
       <path id="ArialMT-29" d="M 791 -1347 
L 388 -1347 
Q 1322 153 1322 1656 
Q 1322 2244 1188 2822 
Q 1081 3291 891 3722 
Q 769 4003 388 4659 
L 791 4659 
Q 1378 3875 1659 3084 
Q 1900 2403 1900 1659 
Q 1900 816 1576 28 
Q 1253 -759 791 -1347 
z
" transform="scale(0.015625)"/>
      </defs>
      <use xlink:href="#ArialMT-41"/>
      <use xlink:href="#ArialMT-76" x="64.949219"/>
      <use xlink:href="#ArialMT-65" x="114.949219"/>
      <use xlink:href="#ArialMT-72" x="170.564453"/>
      <use xlink:href="#ArialMT-61" x="203.865234"/>
      <use xlink:href="#ArialMT-67" x="259.480469"/>
      <use xlink:href="#ArialMT-65" x="315.095703"/>
      <use xlink:href="#ArialMT-20" x="370.710938"/>
      <use xlink:href="#ArialMT-4c" x="398.494141"/>
      <use xlink:href="#ArialMT-6f" x="454.109375"/>
      <use xlink:href="#ArialMT-63" x="509.724609"/>
      <use xlink:href="#ArialMT-61" x="559.724609"/>
      <use xlink:href="#ArialMT-6c" x="615.339844"/>
      <use xlink:href="#ArialMT-69" x="637.556641"/>
      <use xlink:href="#ArialMT-7a" x="659.773438"/>
      <use xlink:href="#ArialMT-61" x="709.773438"/>
      <use xlink:href="#ArialMT-74" x="765.388672"/>
      <use xlink:href="#ArialMT-69" x="793.171875"/>
      <use xlink:href="#ArialMT-6f" x="815.388672"/>
      <use xlink:href="#ArialMT-6e" x="871.003906"/>
      <use xlink:href="#ArialMT-20" x="926.619141"/>
      <use xlink:href="#ArialMT-45" x="954.402344"/>
      <use xlink:href="#ArialMT-72" x="1021.101562"/>
      <use xlink:href="#ArialMT-72" x="1054.402344"/>
      <use xlink:href="#ArialMT-6f" x="1087.703125"/>
      <use xlink:href="#ArialMT-72" x="1143.318359"/>
      <use xlink:href="#ArialMT-20" x="1176.619141"/>
      <use xlink:href="#ArialMT-28" x="1204.402344"/>
      <use xlink:href="#ArialMT-6d" x="1237.703125"/>
      <use xlink:href="#ArialMT-29" x="1321.003906"/>
     </g>
    </g>
   </g>
   <g id="line2d_41">
    <path d="M 88.656912 344.46 
L 132.426985 344.46 
L 176.197058 344.46 
L 219.967131 344.46 
L 263.737204 344.46 
L 307.507277 344.46 
L 351.27735 344.46 
L 395.047423 344.46 
L 438.817496 344.46 
L 482.587569 344.46 
L 526.357642 344.46 
" clip-path="url(#p7f728eaa30)" style="fill: none; stroke: #8fa2cd; stroke-width: 1.5; stroke-linecap: square"/>
    <defs>
     <path id="mf85a3a995d" d="M 0 -4 
L -0.898056 -1.236068 
L -3.804226 -1.236068 
L -1.453085 0.472136 
L -2.351141 3.236068 
L -0 1.527864 
L 2.351141 3.236068 
L 1.453085 0.472136 
L 3.804226 -1.236068 
L 0.898056 -1.236068 
z
" style="stroke: #8fa2cd; stroke-linejoin: bevel"/>
    </defs>
    <g clip-path="url(#p7f728eaa30)">
     <use xlink:href="#mf85a3a995d" x="88.656912" y="344.46" style="fill: #8fa2cd; stroke: #8fa2cd; stroke-linejoin: bevel"/>
     <use xlink:href="#mf85a3a995d" x="132.426985" y="344.46" style="fill: #8fa2cd; stroke: #8fa2cd; stroke-linejoin: bevel"/>
     <use xlink:href="#mf85a3a995d" x="176.197058" y="344.46" style="fill: #8fa2cd; stroke: #8fa2cd; stroke-linejoin: bevel"/>
     <use xlink:href="#mf85a3a995d" x="219.967131" y="344.46" style="fill: #8fa2cd; stroke: #8fa2cd; stroke-linejoin: bevel"/>
     <use xlink:href="#mf85a3a995d" x="263.737204" y="344.46" style="fill: #8fa2cd; stroke: #8fa2cd; stroke-linejoin: bevel"/>
     <use xlink:href="#mf85a3a995d" x="307.507277" y="344.46" style="fill: #8fa2cd; stroke: #8fa2cd; stroke-linejoin: bevel"/>
     <use xlink:href="#mf85a3a995d" x="351.27735" y="344.46" style="fill: #8fa2cd; stroke: #8fa2cd; stroke-linejoin: bevel"/>
     <use xlink:href="#mf85a3a995d" x="395.047423" y="344.46" style="fill: #8fa2cd; stroke: #8fa2cd; stroke-linejoin: bevel"/>
     <use xlink:href="#mf85a3a995d" x="438.817496" y="344.46" style="fill: #8fa2cd; stroke: #8fa2cd; stroke-linejoin: bevel"/>
     <use xlink:href="#mf85a3a995d" x="482.587569" y="344.46" style="fill: #8fa2cd; stroke: #8fa2cd; stroke-linejoin: bevel"/>
     <use xlink:href="#mf85a3a995d" x="526.357642" y="344.46" style="fill: #8fa2cd; stroke: #8fa2cd; stroke-linejoin: bevel"/>
    </g>
   </g>
   <g id="line2d_42">
    <path d="M 88.656912 23.26 
L 132.426985 159.512463 
L 176.197058 186.502788 
L 219.967131 197.959955 
L 263.737204 205.706696 
L 307.507277 211.120608 
L 351.27735 215.415296 
L 395.047423 219.467699 
L 438.817496 223.154732 
L 482.587569 226.850824 
L 526.357642 230.282463 
" clip-path="url(#p7f728eaa30)" style="fill: none; stroke: #f8bc7e; stroke-width: 1.5; stroke-linecap: square"/>
    <defs>
     <path id="m5bf755c4fc" d="M -0 3.75 
L 3.75 -3.75 
L -3.75 -3.75 
z
" style="stroke: #f8bc7e; stroke-linejoin: miter"/>
    </defs>
    <g clip-path="url(#p7f728eaa30)">
     <use xlink:href="#m5bf755c4fc" x="88.656912" y="23.26" style="fill: #f8bc7e; stroke: #f8bc7e; stroke-linejoin: miter"/>
     <use xlink:href="#m5bf755c4fc" x="132.426985" y="159.512463" style="fill: #f8bc7e; stroke: #f8bc7e; stroke-linejoin: miter"/>
     <use xlink:href="#m5bf755c4fc" x="176.197058" y="186.502788" style="fill: #f8bc7e; stroke: #f8bc7e; stroke-linejoin: miter"/>
     <use xlink:href="#m5bf755c4fc" x="219.967131" y="197.959955" style="fill: #f8bc7e; stroke: #f8bc7e; stroke-linejoin: miter"/>
     <use xlink:href="#m5bf755c4fc" x="263.737204" y="205.706696" style="fill: #f8bc7e; stroke: #f8bc7e; stroke-linejoin: miter"/>
     <use xlink:href="#m5bf755c4fc" x="307.507277" y="211.120608" style="fill: #f8bc7e; stroke: #f8bc7e; stroke-linejoin: miter"/>
     <use xlink:href="#m5bf755c4fc" x="351.27735" y="215.415296" style="fill: #f8bc7e; stroke: #f8bc7e; stroke-linejoin: miter"/>
     <use xlink:href="#m5bf755c4fc" x="395.047423" y="219.467699" style="fill: #f8bc7e; stroke: #f8bc7e; stroke-linejoin: miter"/>
     <use xlink:href="#m5bf755c4fc" x="438.817496" y="223.154732" style="fill: #f8bc7e; stroke: #f8bc7e; stroke-linejoin: miter"/>
     <use xlink:href="#m5bf755c4fc" x="482.587569" y="226.850824" style="fill: #f8bc7e; stroke: #f8bc7e; stroke-linejoin: miter"/>
     <use xlink:href="#m5bf755c4fc" x="526.357642" y="230.282463" style="fill: #f8bc7e; stroke: #f8bc7e; stroke-linejoin: miter"/>
    </g>
   </g>
   <g id="line2d_43">
    <path d="M 88.656912 25.322117 
L 132.426985 130.482912 
L 176.197058 157.704821 
L 219.967131 161.441825 
L 263.737204 174.898029 
L 307.507277 167.822326 
L 351.27735 181.814407 
L 395.047423 181.926804 
L 438.817496 167.293216 
L 482.587569 169.09631 
L 526.357642 172.673027 
" clip-path="url(#p7f728eaa30)" style="fill: none; stroke: #9bbf9e; stroke-width: 1.5; stroke-linecap: square"/>
    <defs>
     <path id="m7425434330" d="M -3.75 3.75 
L 3.75 3.75 
L 3.75 -3.75 
L -3.75 -3.75 
z
" style="stroke: #9bbf9e; stroke-linejoin: miter"/>
    </defs>
    <g clip-path="url(#p7f728eaa30)">
     <use xlink:href="#m7425434330" x="88.656912" y="25.322117" style="fill: #9bbf9e; stroke: #9bbf9e; stroke-linejoin: miter"/>
     <use xlink:href="#m7425434330" x="132.426985" y="130.482912" style="fill: #9bbf9e; stroke: #9bbf9e; stroke-linejoin: miter"/>
     <use xlink:href="#m7425434330" x="176.197058" y="157.704821" style="fill: #9bbf9e; stroke: #9bbf9e; stroke-linejoin: miter"/>
     <use xlink:href="#m7425434330" x="219.967131" y="161.441825" style="fill: #9bbf9e; stroke: #9bbf9e; stroke-linejoin: miter"/>
     <use xlink:href="#m7425434330" x="263.737204" y="174.898029" style="fill: #9bbf9e; stroke: #9bbf9e; stroke-linejoin: miter"/>
     <use xlink:href="#m7425434330" x="307.507277" y="167.822326" style="fill: #9bbf9e; stroke: #9bbf9e; stroke-linejoin: miter"/>
     <use xlink:href="#m7425434330" x="351.27735" y="181.814407" style="fill: #9bbf9e; stroke: #9bbf9e; stroke-linejoin: miter"/>
     <use xlink:href="#m7425434330" x="395.047423" y="181.926804" style="fill: #9bbf9e; stroke: #9bbf9e; stroke-linejoin: miter"/>
     <use xlink:href="#m7425434330" x="438.817496" y="167.293216" style="fill: #9bbf9e; stroke: #9bbf9e; stroke-linejoin: miter"/>
     <use xlink:href="#m7425434330" x="482.587569" y="169.09631" style="fill: #9bbf9e; stroke: #9bbf9e; stroke-linejoin: miter"/>
     <use xlink:href="#m7425434330" x="526.357642" y="172.673027" style="fill: #9bbf9e; stroke: #9bbf9e; stroke-linejoin: miter"/>
    </g>
   </g>
   <g id="patch_3">
    <path d="M 66.771875 360.52 
L 66.771875 7.2 
" style="fill: none; stroke: #000000; stroke-linejoin: miter; stroke-linecap: square"/>
   </g>
   <g id="patch_4">
    <path d="M 548.242678 360.52 
L 548.242678 7.2 
" style="fill: none; stroke: #000000; stroke-linejoin: miter; stroke-linecap: square"/>
   </g>
   <g id="patch_5">
    <path d="M 66.771875 360.52 
L 548.242678 360.52 
" style="fill: none; stroke: #000000; stroke-linejoin: miter; stroke-linecap: square"/>
   </g>
   <g id="patch_6">
    <path d="M 66.771875 7.2 
L 548.242678 7.2 
" style="fill: none; stroke: #000000; stroke-linejoin: miter; stroke-linecap: square"/>
   </g>
   <g id="text_12">
    <!-- No additional training needed -->
    <g transform="translate(88.656912 315.574679) scale(0.16 -0.16)">
     <defs>
      <path id="ArialMT-4e" d="M 488 0 
L 488 4581 
L 1109 4581 
L 3516 984 
L 3516 4581 
L 4097 4581 
L 4097 0 
L 3475 0 
L 1069 3600 
L 1069 0 
L 488 0 
z
" transform="scale(0.015625)"/>
      <path id="ArialMT-64" d="M 2575 0 
L 2575 419 
Q 2259 -75 1647 -75 
Q 1250 -75 917 144 
Q 584 363 401 755 
Q 219 1147 219 1656 
Q 219 2153 384 2558 
Q 550 2963 881 3178 
Q 1213 3394 1622 3394 
Q 1922 3394 2156 3267 
Q 2391 3141 2538 2938 
L 2538 4581 
L 3097 4581 
L 3097 0 
L 2575 0 
z
M 797 1656 
Q 797 1019 1065 703 
Q 1334 388 1700 388 
Q 2069 388 2326 689 
Q 2584 991 2584 1609 
Q 2584 2291 2321 2609 
Q 2059 2928 1675 2928 
Q 1300 2928 1048 2622 
Q 797 2316 797 1656 
z
" transform="scale(0.015625)"/>
     </defs>
     <use xlink:href="#ArialMT-4e"/>
     <use xlink:href="#ArialMT-6f" x="72.216797"/>
     <use xlink:href="#ArialMT-20" x="127.832031"/>
     <use xlink:href="#ArialMT-61" x="155.615234"/>
     <use xlink:href="#ArialMT-64" x="211.230469"/>
     <use xlink:href="#ArialMT-64" x="266.845703"/>
     <use xlink:href="#ArialMT-69" x="322.460938"/>
     <use xlink:href="#ArialMT-74" x="344.677734"/>
     <use xlink:href="#ArialMT-69" x="372.460938"/>
     <use xlink:href="#ArialMT-6f" x="394.677734"/>
     <use xlink:href="#ArialMT-6e" x="450.292969"/>
     <use xlink:href="#ArialMT-61" x="505.908203"/>
     <use xlink:href="#ArialMT-6c" x="561.523438"/>
     <use xlink:href="#ArialMT-20" x="583.740234"/>
     <use xlink:href="#ArialMT-74" x="611.523438"/>
     <use xlink:href="#ArialMT-72" x="639.306641"/>
     <use xlink:href="#ArialMT-61" x="672.607422"/>
     <use xlink:href="#ArialMT-69" x="728.222656"/>
     <use xlink:href="#ArialMT-6e" x="750.439453"/>
     <use xlink:href="#ArialMT-69" x="806.054688"/>
     <use xlink:href="#ArialMT-6e" x="828.271484"/>
     <use xlink:href="#ArialMT-67" x="883.886719"/>
     <use xlink:href="#ArialMT-20" x="939.501953"/>
     <use xlink:href="#ArialMT-6e" x="967.285156"/>
     <use xlink:href="#ArialMT-65" x="1022.900391"/>
     <use xlink:href="#ArialMT-65" x="1078.515625"/>
     <use xlink:href="#ArialMT-64" x="1134.130859"/>
     <use xlink:href="#ArialMT-65" x="1189.746094"/>
     <use xlink:href="#ArialMT-64" x="1245.361328"/>
    </g>
    <!-- for adaptation to new scenarios -->
    <g transform="translate(88.656912 332.919179) scale(0.16 -0.16)">
     <defs>
      <path id="ArialMT-77" d="M 1034 0 
L 19 3319 
L 600 3319 
L 1128 1403 
L 1325 691 
Q 1338 744 1497 1375 
L 2025 3319 
L 2603 3319 
L 3100 1394 
L 3266 759 
L 3456 1400 
L 4025 3319 
L 4572 3319 
L 3534 0 
L 2950 0 
L 2422 1988 
L 2294 2553 
L 1622 0 
L 1034 0 
z
" transform="scale(0.015625)"/>
      <path id="ArialMT-73" d="M 197 991 
L 753 1078 
Q 800 744 1014 566 
Q 1228 388 1613 388 
Q 2000 388 2187 545 
Q 2375 703 2375 916 
Q 2375 1106 2209 1216 
Q 2094 1291 1634 1406 
Q 1016 1563 777 1677 
Q 538 1791 414 1992 
Q 291 2194 291 2438 
Q 291 2659 392 2848 
Q 494 3038 669 3163 
Q 800 3259 1026 3326 
Q 1253 3394 1513 3394 
Q 1903 3394 2198 3281 
Q 2494 3169 2634 2976 
Q 2775 2784 2828 2463 
L 2278 2388 
Q 2241 2644 2061 2787 
Q 1881 2931 1553 2931 
Q 1166 2931 1000 2803 
Q 834 2675 834 2503 
Q 834 2394 903 2306 
Q 972 2216 1119 2156 
Q 1203 2125 1616 2013 
Q 2213 1853 2448 1751 
Q 2684 1650 2818 1456 
Q 2953 1263 2953 975 
Q 2953 694 2789 445 
Q 2625 197 2315 61 
Q 2006 -75 1616 -75 
Q 969 -75 630 194 
Q 291 463 197 991 
z
" transform="scale(0.015625)"/>
     </defs>
     <use xlink:href="#ArialMT-66"/>
     <use xlink:href="#ArialMT-6f" x="27.783203"/>
     <use xlink:href="#ArialMT-72" x="83.398438"/>
     <use xlink:href="#ArialMT-20" x="116.699219"/>
     <use xlink:href="#ArialMT-61" x="144.482422"/>
     <use xlink:href="#ArialMT-64" x="200.097656"/>
     <use xlink:href="#ArialMT-61" x="255.712891"/>
     <use xlink:href="#ArialMT-70" x="311.328125"/>
     <use xlink:href="#ArialMT-74" x="366.943359"/>
     <use xlink:href="#ArialMT-61" x="394.726562"/>
     <use xlink:href="#ArialMT-74" x="450.341797"/>
     <use xlink:href="#ArialMT-69" x="478.125"/>
     <use xlink:href="#ArialMT-6f" x="500.341797"/>
     <use xlink:href="#ArialMT-6e" x="555.957031"/>
     <use xlink:href="#ArialMT-20" x="611.572266"/>
     <use xlink:href="#ArialMT-74" x="639.355469"/>
     <use xlink:href="#ArialMT-6f" x="667.138672"/>
     <use xlink:href="#ArialMT-20" x="722.753906"/>
     <use xlink:href="#ArialMT-6e" x="750.537109"/>
     <use xlink:href="#ArialMT-65" x="806.152344"/>
     <use xlink:href="#ArialMT-77" x="861.767578"/>
     <use xlink:href="#ArialMT-20" x="933.984375"/>
     <use xlink:href="#ArialMT-73" x="961.767578"/>
     <use xlink:href="#ArialMT-63" x="1011.767578"/>
     <use xlink:href="#ArialMT-65" x="1061.767578"/>
     <use xlink:href="#ArialMT-6e" x="1117.382812"/>
     <use xlink:href="#ArialMT-61" x="1172.998047"/>
     <use xlink:href="#ArialMT-72" x="1228.613281"/>
     <use xlink:href="#ArialMT-69" x="1261.914062"/>
     <use xlink:href="#ArialMT-6f" x="1284.130859"/>
     <use xlink:href="#ArialMT-73" x="1339.746094"/>
    </g>
   </g>
   <g id="legend_1">
    <g id="line2d_44">
     <path d="M 134.220178 27.6475 
L 150.220178 27.6475 
L 166.220178 27.6475 
" style="fill: none; stroke: #8fa2cd; stroke-width: 1.5; stroke-linecap: square"/>
     <g>
      <use xlink:href="#mf85a3a995d" x="150.220178" y="27.6475" style="fill: #8fa2cd; stroke: #8fa2cd; stroke-linejoin: bevel"/>
     </g>
    </g>
    <g id="text_13">
     <!-- ALLoc (without any tuning/training) -->
     <g transform="translate(179.020178 33.2475) scale(0.16 -0.16)">
      <defs>
       <path id="ArialMT-79" d="M 397 -1278 
L 334 -750 
Q 519 -800 656 -800 
Q 844 -800 956 -737 
Q 1069 -675 1141 -563 
Q 1194 -478 1313 -144 
Q 1328 -97 1363 -6 
L 103 3319 
L 709 3319 
L 1400 1397 
Q 1534 1031 1641 628 
Q 1738 1016 1872 1384 
L 2581 3319 
L 3144 3319 
L 1881 -56 
Q 1678 -603 1566 -809 
Q 1416 -1088 1222 -1217 
Q 1028 -1347 759 -1347 
Q 597 -1347 397 -1278 
z
" transform="scale(0.015625)"/>
      </defs>
      <use xlink:href="#ArialMT-41"/>
      <use xlink:href="#ArialMT-4c" x="66.699219"/>
      <use xlink:href="#ArialMT-4c" x="122.314453"/>
      <use xlink:href="#ArialMT-6f" x="177.929688"/>
      <use xlink:href="#ArialMT-63" x="233.544922"/>
      <use xlink:href="#ArialMT-20" x="283.544922"/>
      <use xlink:href="#ArialMT-28" x="311.328125"/>
      <use xlink:href="#ArialMT-77" x="344.628906"/>
      <use xlink:href="#ArialMT-69" x="416.845703"/>
      <use xlink:href="#ArialMT-74" x="439.0625"/>
      <use xlink:href="#ArialMT-68" x="466.845703"/>
      <use xlink:href="#ArialMT-6f" x="522.460938"/>
      <use xlink:href="#ArialMT-75" x="578.076172"/>
      <use xlink:href="#ArialMT-74" x="633.691406"/>
      <use xlink:href="#ArialMT-20" x="661.474609"/>
      <use xlink:href="#ArialMT-61" x="689.257812"/>
      <use xlink:href="#ArialMT-6e" x="744.873047"/>
      <use xlink:href="#ArialMT-79" x="800.488281"/>
      <use xlink:href="#ArialMT-20" x="850.488281"/>
      <use xlink:href="#ArialMT-74" x="878.271484"/>
      <use xlink:href="#ArialMT-75" x="906.054688"/>
      <use xlink:href="#ArialMT-6e" x="961.669922"/>
      <use xlink:href="#ArialMT-69" x="1017.285156"/>
      <use xlink:href="#ArialMT-6e" x="1039.501953"/>
      <use xlink:href="#ArialMT-67" x="1095.117188"/>
      <use xlink:href="#ArialMT-2f" x="1150.732422"/>
      <use xlink:href="#ArialMT-74" x="1178.515625"/>
      <use xlink:href="#ArialMT-72" x="1206.298828"/>
      <use xlink:href="#ArialMT-61" x="1239.599609"/>
      <use xlink:href="#ArialMT-69" x="1295.214844"/>
      <use xlink:href="#ArialMT-6e" x="1317.431641"/>
      <use xlink:href="#ArialMT-69" x="1373.046875"/>
      <use xlink:href="#ArialMT-6e" x="1395.263672"/>
      <use xlink:href="#ArialMT-67" x="1450.878906"/>
      <use xlink:href="#ArialMT-29" x="1506.494141"/>
     </g>
    </g>
    <g id="line2d_45">
     <path d="M 134.220178 50.6625 
L 150.220178 50.6625 
L 166.220178 50.6625 
" style="fill: none; stroke: #f8bc7e; stroke-width: 1.5; stroke-linecap: square"/>
     <g>
      <use xlink:href="#m5bf755c4fc" x="150.220178" y="50.6625" style="fill: #f8bc7e; stroke: #f8bc7e; stroke-linejoin: miter"/>
     </g>
    </g>
    <g id="text_14">
     <!-- AD_CNN based on tuning after multi-task learning -->
     <g transform="translate(179.020178 56.2625) scale(0.16 -0.16)">
      <defs>
       <path id="ArialMT-44" d="M 494 0 
L 494 4581 
L 2072 4581 
Q 2606 4581 2888 4516 
Q 3281 4425 3559 4188 
Q 3922 3881 4101 3404 
Q 4281 2928 4281 2316 
Q 4281 1794 4159 1391 
Q 4038 988 3847 723 
Q 3656 459 3429 307 
Q 3203 156 2883 78 
Q 2563 0 2147 0 
L 494 0 
z
M 1100 541 
L 2078 541 
Q 2531 541 2789 625 
Q 3047 709 3200 863 
Q 3416 1078 3536 1442 
Q 3656 1806 3656 2325 
Q 3656 3044 3420 3430 
Q 3184 3816 2847 3947 
Q 2603 4041 2063 4041 
L 1100 4041 
L 1100 541 
z
" transform="scale(0.015625)"/>
       <path id="ArialMT-5f" d="M -97 -1272 
L -97 -866 
L 3631 -866 
L 3631 -1272 
L -97 -1272 
z
" transform="scale(0.015625)"/>
       <path id="ArialMT-43" d="M 3763 1606 
L 4369 1453 
Q 4178 706 3683 314 
Q 3188 -78 2472 -78 
Q 1731 -78 1267 223 
Q 803 525 561 1097 
Q 319 1669 319 2325 
Q 319 3041 592 3573 
Q 866 4106 1370 4382 
Q 1875 4659 2481 4659 
Q 3169 4659 3637 4309 
Q 4106 3959 4291 3325 
L 3694 3184 
Q 3534 3684 3231 3912 
Q 2928 4141 2469 4141 
Q 1941 4141 1586 3887 
Q 1231 3634 1087 3207 
Q 944 2781 944 2328 
Q 944 1744 1114 1308 
Q 1284 872 1643 656 
Q 2003 441 2422 441 
Q 2931 441 3284 734 
Q 3638 1028 3763 1606 
z
" transform="scale(0.015625)"/>
       <path id="ArialMT-62" d="M 941 0 
L 419 0 
L 419 4581 
L 981 4581 
L 981 2947 
Q 1338 3394 1891 3394 
Q 2197 3394 2470 3270 
Q 2744 3147 2920 2923 
Q 3097 2700 3197 2384 
Q 3297 2069 3297 1709 
Q 3297 856 2875 390 
Q 2453 -75 1863 -75 
Q 1275 -75 941 416 
L 941 0 
z
M 934 1684 
Q 934 1088 1097 822 
Q 1363 388 1816 388 
Q 2184 388 2453 708 
Q 2722 1028 2722 1663 
Q 2722 2313 2464 2622 
Q 2206 2931 1841 2931 
Q 1472 2931 1203 2611 
Q 934 2291 934 1684 
z
" transform="scale(0.015625)"/>
       <path id="ArialMT-2d" d="M 203 1375 
L 203 1941 
L 1931 1941 
L 1931 1375 
L 203 1375 
z
" transform="scale(0.015625)"/>
       <path id="ArialMT-6b" d="M 425 0 
L 425 4581 
L 988 4581 
L 988 1969 
L 2319 3319 
L 3047 3319 
L 1778 2088 
L 3175 0 
L 2481 0 
L 1384 1697 
L 988 1316 
L 988 0 
L 425 0 
z
" transform="scale(0.015625)"/>
      </defs>
      <use xlink:href="#ArialMT-41"/>
      <use xlink:href="#ArialMT-44" x="66.699219"/>
      <use xlink:href="#ArialMT-5f" x="138.916016"/>
      <use xlink:href="#ArialMT-43" x="194.53125"/>
      <use xlink:href="#ArialMT-4e" x="266.748047"/>
      <use xlink:href="#ArialMT-4e" x="338.964844"/>
      <use xlink:href="#ArialMT-20" x="411.181641"/>
      <use xlink:href="#ArialMT-62" x="438.964844"/>
      <use xlink:href="#ArialMT-61" x="494.580078"/>
      <use xlink:href="#ArialMT-73" x="550.195312"/>
      <use xlink:href="#ArialMT-65" x="600.195312"/>
      <use xlink:href="#ArialMT-64" x="655.810547"/>
      <use xlink:href="#ArialMT-20" x="711.425781"/>
      <use xlink:href="#ArialMT-6f" x="739.208984"/>
      <use xlink:href="#ArialMT-6e" x="794.824219"/>
      <use xlink:href="#ArialMT-20" x="850.439453"/>
      <use xlink:href="#ArialMT-74" x="878.222656"/>
      <use xlink:href="#ArialMT-75" x="906.005859"/>
      <use xlink:href="#ArialMT-6e" x="961.621094"/>
      <use xlink:href="#ArialMT-69" x="1017.236328"/>
      <use xlink:href="#ArialMT-6e" x="1039.453125"/>
      <use xlink:href="#ArialMT-67" x="1095.068359"/>
      <use xlink:href="#ArialMT-20" x="1150.683594"/>
      <use xlink:href="#ArialMT-61" x="1178.466797"/>
      <use xlink:href="#ArialMT-66" x="1234.082031"/>
      <use xlink:href="#ArialMT-74" x="1261.865234"/>
      <use xlink:href="#ArialMT-65" x="1289.648438"/>
      <use xlink:href="#ArialMT-72" x="1345.263672"/>
      <use xlink:href="#ArialMT-20" x="1378.564453"/>
      <use xlink:href="#ArialMT-6d" x="1406.347656"/>
      <use xlink:href="#ArialMT-75" x="1489.648438"/>
      <use xlink:href="#ArialMT-6c" x="1545.263672"/>
      <use xlink:href="#ArialMT-74" x="1567.480469"/>
      <use xlink:href="#ArialMT-69" x="1595.263672"/>
      <use xlink:href="#ArialMT-2d" x="1617.480469"/>
      <use xlink:href="#ArialMT-74" x="1650.78125"/>
      <use xlink:href="#ArialMT-61" x="1678.564453"/>
      <use xlink:href="#ArialMT-73" x="1734.179688"/>
      <use xlink:href="#ArialMT-6b" x="1784.179688"/>
      <use xlink:href="#ArialMT-20" x="1834.179688"/>
      <use xlink:href="#ArialMT-6c" x="1861.962891"/>
      <use xlink:href="#ArialMT-65" x="1884.179688"/>
      <use xlink:href="#ArialMT-61" x="1939.794922"/>
      <use xlink:href="#ArialMT-72" x="1995.410156"/>
      <use xlink:href="#ArialMT-6e" x="2028.710938"/>
      <use xlink:href="#ArialMT-69" x="2084.326172"/>
      <use xlink:href="#ArialMT-6e" x="2106.542969"/>
      <use xlink:href="#ArialMT-67" x="2162.158203"/>
     </g>
    </g>
    <g id="line2d_46">
     <path d="M 134.220178 73.6775 
L 150.220178 73.6775 
L 166.220178 73.6775 
" style="fill: none; stroke: #9bbf9e; stroke-width: 1.5; stroke-linecap: square"/>
     <g>
      <use xlink:href="#m7425434330" x="150.220178" y="73.6775" style="fill: #9bbf9e; stroke: #9bbf9e; stroke-linejoin: miter"/>
     </g>
    </g>
    <g id="text_15">
     <!-- AD_CNN based on scenario-specific learning -->
     <g transform="translate(179.020178 79.2775) scale(0.16 -0.16)">
      <use xlink:href="#ArialMT-41"/>
      <use xlink:href="#ArialMT-44" x="66.699219"/>
      <use xlink:href="#ArialMT-5f" x="138.916016"/>
      <use xlink:href="#ArialMT-43" x="194.53125"/>
      <use xlink:href="#ArialMT-4e" x="266.748047"/>
      <use xlink:href="#ArialMT-4e" x="338.964844"/>
      <use xlink:href="#ArialMT-20" x="411.181641"/>
      <use xlink:href="#ArialMT-62" x="438.964844"/>
      <use xlink:href="#ArialMT-61" x="494.580078"/>
      <use xlink:href="#ArialMT-73" x="550.195312"/>
      <use xlink:href="#ArialMT-65" x="600.195312"/>
      <use xlink:href="#ArialMT-64" x="655.810547"/>
      <use xlink:href="#ArialMT-20" x="711.425781"/>
      <use xlink:href="#ArialMT-6f" x="739.208984"/>
      <use xlink:href="#ArialMT-6e" x="794.824219"/>
      <use xlink:href="#ArialMT-20" x="850.439453"/>
      <use xlink:href="#ArialMT-73" x="878.222656"/>
      <use xlink:href="#ArialMT-63" x="928.222656"/>
      <use xlink:href="#ArialMT-65" x="978.222656"/>
      <use xlink:href="#ArialMT-6e" x="1033.837891"/>
      <use xlink:href="#ArialMT-61" x="1089.453125"/>
      <use xlink:href="#ArialMT-72" x="1145.068359"/>
      <use xlink:href="#ArialMT-69" x="1178.369141"/>
      <use xlink:href="#ArialMT-6f" x="1200.585938"/>
      <use xlink:href="#ArialMT-2d" x="1256.201172"/>
      <use xlink:href="#ArialMT-73" x="1289.501953"/>
      <use xlink:href="#ArialMT-70" x="1339.501953"/>
      <use xlink:href="#ArialMT-65" x="1395.117188"/>
      <use xlink:href="#ArialMT-63" x="1450.732422"/>
      <use xlink:href="#ArialMT-69" x="1500.732422"/>
      <use xlink:href="#ArialMT-66" x="1522.949219"/>
      <use xlink:href="#ArialMT-69" x="1550.732422"/>
      <use xlink:href="#ArialMT-63" x="1572.949219"/>
      <use xlink:href="#ArialMT-20" x="1622.949219"/>
      <use xlink:href="#ArialMT-6c" x="1650.732422"/>
      <use xlink:href="#ArialMT-65" x="1672.949219"/>
      <use xlink:href="#ArialMT-61" x="1728.564453"/>
      <use xlink:href="#ArialMT-72" x="1784.179688"/>
      <use xlink:href="#ArialMT-6e" x="1817.480469"/>
      <use xlink:href="#ArialMT-69" x="1873.095703"/>
      <use xlink:href="#ArialMT-6e" x="1895.3125"/>
      <use xlink:href="#ArialMT-67" x="1950.927734"/>
     </g>
    </g>
   </g>
  </g>
 </g>
 <defs>
  <clipPath id="p7f728eaa30">
   <rect x="66.771875" y="7.2" width="481.470803" height="353.32"/>
  </clipPath>
 </defs>
</svg>
